<svg width="32" height="32" viewBox="0 0 32 32" fill="none" xmlns="http://www.w3.org/2000/svg">
<path d="M22.3999 10.1667C21.5347 10.1667 20.8332 10.8682 20.8332 11.7334C20.8332 12.5987 21.5347 13.3001 22.3999 13.3001C23.2651 13.3001 23.9666 12.5987 23.9666 11.7334C23.9666 10.8682 23.2651 10.1667 22.3999 10.1667ZM9.5999 10.1667C8.73465 10.1667 8.03323 10.8682 8.03323 11.7334C8.03323 12.5987 8.73465 13.3001 9.5999 13.3001C10.4651 13.3001 11.1666 12.5987 11.1666 11.7334C11.1666 10.8682 10.4651 10.1667 9.5999 10.1667ZM18.877 21.4464C19.7703 21.893 20.5474 22.5415 21.1466 23.3405C21.6657 24.0327 22.6477 24.173 23.3399 23.6538C24.0321 23.1347 24.1724 22.1527 23.6533 21.4605C19.8266 16.3576 12.1733 16.3576 8.3466 21.4605C7.82745 22.1527 7.96774 23.1347 8.65993 23.6538C9.35213 24.173 10.3341 24.0327 10.8533 23.3405C11.4525 22.5415 12.2296 21.893 13.1229 21.4464C14.0162 20.9997 15.0012 20.7672 15.9999 20.7672C16.9987 20.7672 17.9837 20.9997 18.877 21.4464Z" stroke="#1F2E21" stroke-opacity="0.8"/>
</svg>
