<svg width="53" height="56" viewBox="0 0 53 56" fill="none"
  xmlns="http://www.w3.org/2000/svg">
  <path d="M26.0978 29.5899V6.21225C26.0978 3.9821 28.4448 2.53161 30.4395 3.52896L41.2635 8.94096C43.4746 10.0465 43.4746 13.2019 41.2635 14.3075L26.0978 21.8903M48.0699 22.4608C49.4357 26.6703 49.5635 31.1835 48.4381 35.4635C47.3127 39.7435 44.9815 43.6101 41.7218 46.6033C38.4621 49.5966 34.4112 51.5904 30.0509 52.3476C25.6907 53.1048 21.2048 52.5935 17.1268 50.8746C13.0488 49.1556 9.55038 46.3014 7.04784 42.6515C4.5453 39.0015 3.14395 34.7095 3.01051 30.286C2.87706 25.8625 4.01715 21.4938 6.29512 17.6997C8.57309 13.9055 11.8931 10.8456 15.86 8.88393M15.8369 21.8828C14.5509 23.5947 13.7136 25.6012 13.4014 27.7196C13.0892 29.8379 13.3121 32.0006 14.0496 34.0108C14.7872 36.0209 16.016 37.8146 17.6241 39.2283C19.2322 40.6421 21.1685 41.6309 23.2566 42.1049C25.3447 42.5788 27.5181 42.5227 29.579 41.9417C31.6399 41.3607 33.5226 40.2732 35.0556 38.7784C36.5887 37.2836 37.7233 35.429 38.3562 33.3834C38.9891 31.3379 39.1 29.1666 38.679 27.0672" stroke="#FF6F61" stroke-width="6" stroke-linecap="round" stroke-linejoin="round"/>
</svg>
