<svg width="39" height="50" viewBox="0 0 39 50" fill="#FFF7EC"
  xmlns="http://www.w3.org/2000/svg">
  <path d="M14.7037 21.0998L18.7312 17.4098C19.8325 16.3989 20.6065 15.082 20.9539 13.628C21.3014 12.174 21.2064 10.6494 20.6812 9.24983L18.9637 4.66358C18.3221 2.9514 17.0518 1.54826 15.4116 0.740038C13.7715 -0.0681886 11.8849 -0.220699 10.1362 0.313579C3.70123 2.28233 -1.24502 8.26358 0.277478 15.3661C1.27873 20.0386 3.19498 25.9036 6.82498 32.1436C10.4625 38.3986 14.6175 43.0186 18.18 46.2661C23.5575 51.1598 31.245 49.9373 36.1912 45.3248C37.5163 44.0881 38.3203 42.3929 38.4394 40.5843C38.5585 38.7757 37.9839 36.9897 36.8325 35.5898L33.6825 31.7648C32.7324 30.6081 31.458 29.7622 30.0232 29.3358C28.5884 28.9094 27.0588 28.9222 25.6312 29.3723L20.4262 31.0111C19.0813 29.6245 17.9032 28.0853 16.9162 26.4248C15.9638 24.7456 15.2207 22.9561 14.7037 21.0961"/>
</svg>
