<svg width="13" height="13" viewBox="0 0 13 13" fill="black"
  xmlns="http://www.w3.org/2000/svg">
  <path d="M6.50004 4.42289L2.99359 0.916447C2.73148 0.654332 2.3769 0.504672 2.00629 0.500039L2.00629 0.5H2.00004C1.60222 0.5 1.22069 0.658035 0.93938 0.93934C0.658076 1.22064 0.500041 1.60218 0.500041 2V2.00926L0.500384 2.01852C0.51363 2.37592 0.663154 2.71466 0.918208 2.96527L4.45064 6.49771L0.920131 9.98284C0.919846 9.98312 0.919562 9.9834 0.919277 9.98368C0.783427 10.117 0.676185 10.2766 0.604112 10.4528C0.532494 10.6279 0.4971 10.8156 0.500048 11.0047C0.50129 11.4008 0.659186 11.7805 0.93938 12.0607C1.22068 12.342 1.60222 12.5 2.00004 12.5V12.5L2.006 12.5C2.19348 12.4977 2.37866 12.4584 2.55085 12.3842C2.72167 12.3106 2.87636 12.2042 3.00613 12.071L6.49773 8.57942L9.95419 12.0812L9.95577 12.0828C10.0947 12.2223 10.2611 12.3314 10.4445 12.4032C10.6246 12.4736 10.8171 12.5066 11.0103 12.5C11.4044 12.4973 11.7818 12.3395 12.0607 12.0607C12.342 11.7794 12.5 11.3978 12.5 11V10.9907L12.4997 10.9815C12.4865 10.6241 12.3369 10.2854 12.0819 10.0347L8.54944 6.50229L12.08 3.01716C12.0802 3.01693 12.0804 3.01669 12.0807 3.01646C12.2166 2.88311 12.3239 2.72344 12.396 2.5472C12.4676 2.37214 12.503 2.18439 12.5 1.99531C12.4988 1.59918 12.3409 1.21954 12.0607 0.93934C11.7794 0.658035 11.3979 0.5 11 0.5V0.499967L10.9943 0.500033C10.8031 0.502216 10.6144 0.542987 10.4393 0.619902C10.2669 0.695659 10.1113 0.804941 9.98157 0.941362L6.50004 4.42289Z"/>
</svg>
