<svg width="54" height="25" viewBox="0 0 54 25" fill="#1A237E" fill-opacity="0.85"
  xmlns="http://www.w3.org/2000/svg">
  <path d="M16.3333 17.9414V16.2987C16.3333 16.2987 16.3333 12.3894 26.9999 12.3894C37.6666 12.3894 37.6666 16.2987 37.6666 16.2987V17.3334C37.6666 19.8827 39.5946 22.0534 42.1999 22.4321L47.5333 23.2161C50.7599 23.6881 53.6666 21.2694 53.6666 18.1147V12.4481C53.6666 10.8827 53.1759 9.34408 51.9866 8.28275C48.9466 5.56541 41.4533 0.666748 26.9999 0.666748C11.6693 0.666748 4.17325 7.55475 1.50659 10.7707C0.666585 11.7867 0.333252 13.0747 0.333252 14.3761V19.5041C0.333252 22.9654 3.78925 25.4454 7.21325 24.4427L12.5466 22.8774C14.7946 22.2188 16.3333 20.2161 16.3333 17.9441"/>
</svg>
