<svg width="22" height="16" viewBox="0 0 22 16" fill="black"
  xmlns="http://www.w3.org/2000/svg">
  <path fill-rule="evenodd" clip-rule="evenodd" d="M0.0689673 7.636C1.80297 3.194 5.88397 0 11 0C16.116 0 20.197 3.194 21.932 7.636C22.0234 7.87005 22.0234 8.12995 21.932 8.364C20.197 12.806 16.116 16 11 16C5.88397 16 1.80297 12.806 0.0689673 8.364C-0.0225008 8.12995 -0.0225008 7.87005 0.0689673 7.636ZM11 11C11.7956 11 12.5587 10.6839 13.1213 10.1213C13.6839 9.55871 14 8.79565 14 8C14 7.20435 13.6839 6.44129 13.1213 5.87868C12.5587 5.31607 11.7956 5 11 5C10.2043 5 9.44126 5.31607 8.87865 5.87868C8.31604 6.44129 7.99997 7.20435 7.99997 8C7.99997 8.79565 8.31604 9.55871 8.87865 10.1213C9.44126 10.6839 10.2043 11 11 11Z"/>
</svg>
