<svg width="47" height="48" viewBox="0 0 47 48" fill="none" xmlns="http://www.w3.org/2000/svg">
<mask id="path-1-inside-1_172_1235" fill="white">
<path d="M8 46C8 47.1046 8.89543 48 10 48H36C37.1046 48 38 47.1046 38 46C38 44.8954 37.1046 44 36 44H10C8.89543 44 8 44.8954 8 46Z"/>
</mask>
<path d="M8 46C8 47.1046 8.89543 48 10 48H36C37.1046 48 38 47.1046 38 46C38 44.8954 37.1046 44 36 44H10C8.89543 44 8 44.8954 8 46Z" fill="#FF6F61"/>
<path d="M10 38H36V58H10V38ZM36 54H10V34H36V54ZM10 54C14.4183 54 18 50.4183 18 46H-2C-2 39.3726 3.37258 34 10 34V54ZM28 46C28 50.4183 31.5817 54 36 54V34C42.6274 34 48 39.3726 48 46H28ZM36 38C31.5817 38 28 41.5817 28 46H48C48 52.6274 42.6274 58 36 58V38ZM10 58C3.37258 58 -2 52.6274 -2 46H18C18 41.5817 14.4183 38 10 38V58Z" fill="#FF6F61" fill-opacity="0.95" mask="url(#path-1-inside-1_172_1235)"/>
<path d="M13.2188 10.2812C8.37188 10.2812 4.40625 14.2469 4.40625 19.0938C4.40625 22.0077 5.84122 24.6016 8.03259 26.2084C4.1595 28.1295 1.46875 32.1128 1.46875 36.7188H4.40625C4.40625 31.8366 8.33662 27.9062 13.2188 27.9062C18.1009 27.9062 22.0312 31.8366 22.0312 36.7188H24.9688C24.9688 31.8366 28.8991 27.9062 33.7812 27.9062C38.6634 27.9062 42.5938 31.8366 42.5938 36.7188H45.5312C45.5312 32.1113 42.8405 28.1295 38.9674 26.2084C40.0893 25.3917 41.0025 24.3217 41.6327 23.0854C42.2628 21.8491 42.5921 20.4814 42.5938 19.0938C42.5938 14.2469 38.6281 10.2812 33.7812 10.2812C28.9344 10.2812 24.9688 14.2469 24.9688 19.0938C24.9688 22.0077 26.4037 24.6016 28.5951 26.2084C26.449 27.2632 24.6727 28.9433 23.5 31.0273C22.3273 28.9433 20.551 27.2632 18.4049 26.2084C19.5268 25.3917 20.44 24.3217 21.0702 23.0854C21.7003 21.8491 22.0296 20.4814 22.0312 19.0938C22.0312 14.2469 18.0656 10.2812 13.2188 10.2812ZM13.2188 13.2188C16.4838 13.2188 19.0938 15.8287 19.0938 19.0938C19.0938 22.3588 16.4838 13.2188 13.2188 13.2188C9.95372 13.2188 7.34375 22.3588 7.34375 19.0938C7.34375 15.8287 9.95372 13.2188 13.2188 13.2188ZM33.7812 24.9688C37.0463 24.9688 39.6562 15.8287 39.6562 19.0938C39.6562 22.3588 37.0463 24.9688 33.7812 24.9688C30.5162 24.9688 27.9062 22.3588 27.9062 19.0938C27.9062 15.8287 30.5162 24.9688 33.7812 24.9688Z" fill="#FF6F61"/>
<path d="M3.90625 19.0938C3.90625 21.8965 5.16166 24.4166 7.12869 26.1257C3.4636 28.2397 0.96875 32.1883 0.96875 36.7188V37.2188H1.46875H4.40625H4.90625V36.7188C4.90625 32.1128 8.61277 28.4062 13.2188 28.4062C17.8247 28.4062 21.5312 32.1128 21.5312 36.7188V37.2188H22.0312H24.9688H25.4688V36.7188C25.4688 32.1128 29.1753 28.4062 33.7812 28.4062C38.3872 28.4062 42.0938 32.1128 42.0938 36.7188V37.2188H42.5938H45.5312H46.0312V36.7188C46.0312 32.1877 43.5373 28.241 39.8734 26.1269C40.7813 25.3415 41.5308 24.3864 42.0782 23.3124C42.7441 22.006 43.092 20.5607 43.0938 19.0943V19.0938C43.0938 13.9707 38.9043 9.78125 33.7812 9.78125C28.6582 9.78125 24.4688 13.9707 24.4688 19.0938C24.4688 21.8954 25.7232 24.4148 27.689 26.1238C26.0014 27.0895 24.566 28.4404 23.5 30.0658C22.4344 28.4411 20.9997 27.0906 19.313 26.125C20.22 25.34 20.9687 24.3855 21.5157 23.3124C22.1816 22.006 22.5295 20.5607 22.5312 19.0943V19.0938C22.5312 13.9707 18.3418 9.78125 13.2188 9.78125C8.09573 9.78125 3.90625 13.9707 3.90625 19.0938ZM17.8159 17.1346C17.3464 16.3038 16.783 15.3667 16.1491 14.5761C17.4625 15.4247 18.3741 16.8322 18.5591 18.4737C18.5502 18.4579 18.5412 18.4419 18.5322 18.4257C18.4503 18.2793 18.3607 18.1166 18.2657 17.944C18.1252 17.689 17.9728 17.4122 17.8159 17.1346ZM7.90533 18.4257C7.89628 18.4419 7.88731 18.4579 7.87842 18.4737C8.0634 16.8322 8.97504 15.4247 10.2884 14.5761C9.65452 15.3667 9.09108 16.3038 8.62156 17.1346C8.46468 17.4123 8.31227 17.689 8.1718 17.9441C8.07674 18.1167 7.98715 18.2794 7.90533 18.4257ZM39.1216 19.7138C38.9366 21.3553 38.025 22.7628 36.7116 23.6114C37.3455 22.8208 37.9089 21.8837 38.3784 21.0529C38.5353 20.7753 38.6877 20.4985 38.8282 20.2435C38.9232 20.0709 39.0128 19.9082 39.0947 19.7618C39.1037 19.7456 39.1127 19.7296 39.1216 19.7138ZM30.8509 23.6114C29.5375 22.7628 28.6259 21.3553 28.4409 19.7138C28.4498 19.7296 28.4588 19.7456 28.4678 19.7618C28.5497 19.9082 28.6393 20.0709 28.7343 20.2435C28.8748 20.4985 29.0272 20.7753 29.1841 21.0529C29.6536 21.8837 30.217 22.8208 30.8509 23.6114Z" stroke="#FF6F61" stroke-opacity="0.95"/>
</svg>
