<svg width="47" height="29" viewBox="0 0 47 29" fill="none"
  xmlns="http://www.w3.org/2000/svg">
  <path d="M13.2188 1.28125C8.37188 1.28125 4.40625 5.24688 4.40625 10.0938C4.40625 13.0077 5.84122 15.6016 8.03259 17.2084C4.1595 19.1295 1.46875 23.1128 1.46875 27.7188H4.40625C4.40625 22.8366 8.33662 18.9062 13.2188 18.9062C18.1009 18.9062 22.0312 22.8366 22.0312 27.7188H24.9688C24.9688 22.8366 28.8991 18.9062 33.7812 18.9062C38.6634 18.9062 42.5938 22.8366 42.5938 27.7188H45.5312C45.5312 23.1113 42.8405 19.1295 38.9674 17.2084C40.0893 16.3917 41.0025 15.3217 41.6327 14.0854C42.2628 12.8491 42.5921 11.4814 42.5938 10.0938C42.5938 5.24688 38.6281 1.28125 33.7812 1.28125C28.9344 1.28125 24.9688 5.24688 24.9688 10.0938C24.9688 13.0077 26.4037 15.6016 28.5951 17.2084C26.449 18.2632 24.6727 19.9433 23.5 22.0273C22.3273 19.9433 20.551 18.2632 18.4049 17.2084C19.5268 16.3917 20.44 15.3217 21.0702 14.0854C21.7003 12.8491 22.0296 11.4814 22.0312 10.0938C22.0312 5.24688 18.0656 1.28125 13.2188 1.28125Z" fill="#FF6F61"/>
  <path d="M3.90625 10.0938C3.90625 12.8965 5.16166 15.4166 7.12869 17.1257C3.4636 19.2397 0.96875 23.1883 0.96875 27.7188V28.2188H1.46875H4.40625H4.90625V27.7188C4.90625 23.1128 8.61277 19.4062 13.2188 19.4062C17.8247 19.4062 21.5312 23.1128 21.5312 27.7188V28.2188H22.0312H24.9688H25.4688V27.7188C25.4688 23.1128 29.1753 19.4062 33.7812 19.4062C38.3872 19.4062 42.0938 23.1128 42.0938 27.7188V28.2188H42.5938H45.5312H46.0312V27.7188C46.0312 23.1877 43.5373 19.241 39.8734 17.1269C40.7813 16.3415 41.5308 15.3864 42.0782 14.3124C42.7441 13.006 43.092 11.5607 43.0938 10.0943V10.0938C43.0938 4.97073 38.9043 0.78125 33.7812 0.78125C28.6582 0.78125 24.4688 4.97073 24.4688 10.0938C24.4688 12.8954 25.7232 15.4148 27.689 17.1238C26.0014 18.0895 24.566 19.4405 23.5 21.0658C22.4344 19.4411 20.9997 18.0906 19.313 17.125C20.22 16.34 20.9687 15.3855 21.5157 14.3124C22.1816 13.006 22.5295 11.5607 22.5312 10.0943V10.0938C22.5312 4.97073 18.3418 0.78125 13.2188 0.78125C8.09573 0.78125 3.90625 4.97073 3.90625 10.0938Z" stroke="#FF6F61" stroke-opacity="0"/>
</svg>
