<svg width="41" height="35" viewBox="0 0 41 35" fill="#1A237E"
  xmlns="http://www.w3.org/2000/svg">
  <path fill-rule="evenodd" clip-rule="evenodd" d="M2.82263 17.188C3.75287 16.4924 5.07814 17.1562 5.07814 18.3178V29.7086C5.07814 31.3655 6.42129 32.7086 8.07814 32.7086H14.0304C15.2945 32.7086 16.2681 31.6231 16.4219 30.3684C16.4824 29.8745 16.7812 28.855 17.0695 27.997C17.3202 27.2507 17.3107 26.4391 17.1112 25.6776C16.7273 24.2126 16.6903 22.7128 17 21.1785C17.3925 19.2341 17.8763 18.804 19.375 17.3368C20.8738 15.8697 22.6156 14.9447 24.6006 14.5617C26.205 14.2521 27.7734 14.2975 29.3059 14.6977C30.0157 14.8831 30.7643 14.8801 31.4729 14.6902C32.7246 14.3545 34.0045 14.2579 35.3125 14.4002C36.8049 14.5625 38.1874 15.0239 39.4598 15.7844C39.7423 15.9532 40.1101 15.8963 40.3122 15.6366C40.527 15.3606 40.4739 14.9621 40.1943 14.752L21.9252 1.02355C20.8586 0.222046 19.3908 0.221244 18.3234 1.02158L0.966408 14.0349C0.158415 14.6407 -0.00118449 15.7888 0.610946 16.592L0.855825 16.9133C1.32503 17.529 2.20271 17.6516 2.82263 17.188Z" />
  <path fill-rule="evenodd" clip-rule="evenodd" d="M26.1986 34.5891C27.5766 34.7089 28.839 34.3812 29.9855 33.6063C31.1343 34.3834 32.3972 34.711 33.7742 34.5891C35.1511 34.4673 36.3316 33.9259 37.3154 32.9649C38.2993 32.0039 38.8524 30.8484 38.9747 29.4983C39.097 28.1483 38.7623 26.912 37.9706 25.7897C38.7645 24.6694 39.0992 23.4337 38.9747 22.0826C38.8502 20.7315 38.2971 19.5754 37.3154 18.6144C36.3338 17.6535 35.1533 17.1126 33.7742 16.9918C32.395 16.871 31.1321 17.1981 29.9855 17.9731C28.8411 17.2002 27.5788 16.8731 26.1986 16.9918C24.8183 17.1104 23.6373 17.6513 22.6556 18.6144C21.6739 19.5775 21.1214 20.7336 20.998 22.0826C20.8746 23.4316 21.2088 24.6673 22.0004 25.7897C21.2109 26.9142 20.8768 28.1504 20.998 29.4983C21.1192 30.8463 21.6718 32.0018 22.6556 32.9649C23.6395 33.928 24.8205 34.4694 26.1986 34.5891ZM31.4401 27.2119C31.0437 27.5999 30.5588 27.7939 29.9855 27.7939C29.4122 27.7939 28.928 27.6004 28.5327 27.2135C28.1374 26.8265 27.9392 26.3519 27.9381 25.7897C27.937 25.2274 28.1346 24.7533 28.531 24.3674C28.9274 23.9816 29.4122 23.7875 29.9855 23.7854C30.5588 23.7833 31.0431 23.9767 31.4384 24.3658C31.8337 24.7549 32.0319 25.2295 32.033 25.7897C32.0341 26.3498 31.8364 26.8239 31.4401 27.2119Z" />
</svg>
