<svg width="64" height="64" viewBox="0 0 64 64" fill="none" xmlns="http://www.w3.org/2000/svg">
<rect width="64" height="64" rx="32" fill="#FFF7EC"/>
<path d="M46.5044 54.9886C47.0402 55.8378 48.1669 56.0965 48.9809 55.5085C53.5638 52.1982 57.0909 47.6112 59.1085 42.3019C61.342 36.4246 61.605 29.9807 59.8577 23.941C58.1105 17.9014 54.4478 12.5931 49.4214 8.81607C44.395 5.03904 38.2773 2.99783 31.99 3C25.7027 3.00217 19.5863 5.04761 14.5626 8.82811C9.53882 12.6086 5.87976 17.9194 4.13672 23.9603C2.39367 30.0012 2.66106 36.4449 4.89861 42.3206C6.91994 47.6285 10.4501 52.2131 15.0353 55.5202C15.8497 56.1076 16.9762 55.8482 17.5115 54.9986C18.0467 54.149 17.7873 53.0315 16.9782 52.4368C13.0576 49.5551 10.0375 45.5975 8.29685 41.0265C6.33987 35.8875 6.10601 30.2518 7.63049 24.9684C9.15498 19.685 12.3552 15.0401 16.7491 11.7336C21.1429 8.42717 26.4923 6.63821 31.9912 6.63631C37.4902 6.63441 42.8408 8.41967 47.2369 11.7231C51.6331 15.0265 54.8365 19.6692 56.3647 24.9515C57.8928 30.2339 57.6628 35.8698 55.7094 41.0101C53.9719 45.5823 50.9545 49.542 47.0359 52.4264C46.2273 53.0217 45.9686 54.1393 46.5044 54.9886Z" fill="#4754AE"/>
<path fill-rule="evenodd" clip-rule="evenodd" d="M21.1214 41.0625V53.75C21.1214 54.7114 21.5033 55.6334 22.1831 56.3133C22.8629 56.9931 23.785 57.375 24.7464 57.375H39.2464C40.2078 57.375 41.1298 56.9931 41.8096 56.3133C42.4894 55.6334 42.8714 54.7114 42.8714 53.75V41.0625H21.1214Z" fill="#FF6F61"/>
<path fill-rule="evenodd" clip-rule="evenodd" d="M48.3089 22.9375V26.5625C48.3089 29.9274 46.9722 33.1546 44.5928 35.5339C42.2134 37.9133 38.9863 39.25 35.6214 39.25H30.1839V35.625C30.1839 32.2601 31.5206 29.033 33.8999 26.6536C36.2793 24.2742 39.5064 22.9375 42.8714 22.9375H48.3089ZM20.2151 21.125C22.3901 21.1232 24.5336 21.6441 26.4653 22.6437C28.3969 23.6432 30.0601 25.0923 31.3149 26.8688C29.4006 29.3861 28.3664 32.4626 28.3714 35.625V37.4375H27.4651C23.8598 37.4375 20.4022 36.0053 17.8529 33.456C15.3036 30.9067 13.8714 27.449 13.8714 23.8438V21.125H20.2151Z" fill="#43DB66"/>
</svg>
