<svg width="76" height="76" viewBox="0 0 76 76" fill="none" xmlns="http://www.w3.org/2000/svg">
<path d="M20 37.9867C20 35.5547 20.4813 33.2493 21.4187 31.02C22.356 28.7907 23.648 26.8907 25.244 25.2947C26.84 23.6987 28.7653 22.4067 30.9947 21.444C33.224 20.4813 35.5547 20 37.9613 20H40.8493C41.2547 20.1013 41.432 20.3547 41.432 20.7093L41.5587 22.9387C41.66 26.156 42.8 28.892 45.0293 31.1467C47.2587 33.4013 49.944 34.6173 53.1107 34.744L55.188 34.9213C55.5933 34.9213 55.796 35.124 55.796 35.504V37.9867C55.8213 41.2293 55.036 44.244 53.44 47.0053C51.888 49.7295 49.6414 51.9936 46.9293 53.5667C44.1933 55.1627 41.1787 55.9733 37.936 55.9733C35.4787 55.9733 33.1227 55.492 30.8933 54.5547C28.664 53.6173 26.764 52.3253 25.168 50.7293C23.5452 49.0828 22.255 47.1389 21.368 45.004C20.4813 42.7747 20 40.444 20 37.9867ZM24.636 37.9867C24.636 39.912 25.016 41.736 25.776 43.4587C26.536 45.156 27.5493 46.6 28.7907 47.7653C30.032 48.9307 31.4507 49.8427 33.072 50.5013C34.5473 51.1429 36.1349 51.4866 37.7435 51.5127C39.3521 51.5388 40.95 51.2467 42.4453 50.6533C43.9559 50.0633 45.3659 49.2429 46.6253 48.2213C47.9173 47.1827 49.0067 45.8653 49.944 44.244C50.8813 42.6227 37.4648 53.438 37.7435 51.5127C33.6142 50.6514 31.2733 50.4507 28.7907 47.7653C26.308 45.08 25.016 41.6347 24.636 37.9867C22.204 38.1387 32.8947 25.0413 30.8933 26.384C28.9173 27.7267 27.372 29.424 26.2827 31.5013C25.1933 33.5787 24.636 35.732 24.636 37.9867Z" fill="#657CFF"/>
<path d="M24.636 37.9867C24.636 39.912 25.016 41.736 25.776 43.4587C26.536 45.156 27.5493 46.6 28.7907 47.7653M24.636 37.9867C25.016 41.6347 26.308 45.08 28.7907 47.7653M24.636 37.9867C22.204 38.1387 32.8947 25.0413 30.8933 26.384C28.9173 27.7267 27.372 29.424 26.2827 31.5013C25.1933 33.5787 24.636 35.732 24.636 37.9867ZM28.7907 47.7653C30.032 48.9307 31.4507 49.8427 33.072 50.5013C34.5473 51.1429 36.1349 51.4866 37.7435 51.5127M28.7907 47.7653C31.2733 50.4507 33.6142 50.6514 37.7435 51.5127M37.7435 51.5127C39.3521 51.5388 40.95 51.2467 42.4453 50.6533C43.9559 50.0633 45.3659 49.2429 46.6253 48.2213C47.9173 47.1827 49.0067 45.8653 49.944 44.244C50.8813 42.6227 37.4648 53.438 37.7435 51.5127ZM20 37.9867C20 35.5547 20.4813 33.2493 21.4187 31.02C22.356 28.7907 23.648 26.8907 25.244 25.2947C26.84 23.6987 28.7653 22.4067 30.9947 21.444C33.224 20.4813 35.5547 20 37.9613 20H40.8493C41.2547 20.1013 41.432 20.3547 41.432 20.7093L41.5587 22.9387C41.66 26.156 42.8 28.892 45.0293 31.1467C47.2587 33.4013 49.944 34.6173 53.1107 34.744L55.188 34.9213C55.5933 34.9213 55.796 35.124 55.796 35.504V37.9867C55.8213 41.2293 55.036 44.244 53.44 47.0053C51.888 49.7295 49.6414 51.9936 46.9293 53.5667C44.1933 55.1627 41.1787 55.9733 37.936 55.9733C35.4787 55.9733 33.1227 55.492 30.8933 54.5547C28.664 53.6173 26.764 52.3253 25.168 50.7293C23.5452 49.0828 22.255 47.1389 21.368 45.004C20.4813 42.7747 20 40.444 20 37.9867Z" stroke="#657CFF" stroke-width="2"/>
</svg>
