<svg width="21" height="23" viewBox="0 0 21 23" fill="#1A237E"
  xmlns="http://www.w3.org/2000/svg">
  <path d="M14.25 3.375V19.625C14.25 20.2063 14.25 20.4962 14.2975 20.7375C14.3938 21.2225 14.6318 21.6681 14.9813 22.0179C15.3309 22.3676 15.7763 22.6059 16.2612 22.7025C16.5037 22.75 16.7938 22.75 17.3738 22.75C17.955 22.75 18.2463 22.75 18.4888 22.7025C18.9735 22.6057 19.4186 22.3673 19.768 22.0176C20.1173 21.6678 20.355 21.2224 20.4513 20.7375C20.5 20.5 20.5 20.2125 20.5 19.64V3.36C20.5 2.78875 20.5 2.50125 20.4525 2.26125C20.3557 1.77651 20.1173 1.33136 19.7676 0.982051C19.4178 0.632742 18.9724 0.394957 18.4875 0.29875C18.2462 0.25 17.9563 0.25 17.375 0.25C16.7937 0.25 16.5038 0.25 16.2625 0.2975C15.7775 0.393794 15.3319 0.631764 14.9821 0.981312C14.6324 1.33086 14.3941 1.77628 14.2975 2.26125C14.25 2.50375 14.25 2.79375 14.25 3.375ZM0.5 3.375V19.625C0.5 20.2063 0.5 20.4962 0.5475 20.7375C0.643794 21.2225 0.881764 21.6681 1.23131 22.0179C1.58086 22.3676 2.02628 22.6059 2.51125 22.7025C2.75375 22.75 3.04375 22.75 3.62375 22.75C4.205 22.75 4.49625 22.75 4.73875 22.7025C5.22349 22.6057 5.66864 22.3673 6.01795 22.0176C6.36726 21.6678 6.60504 21.2224 6.70125 20.7375C6.75 20.5 6.75 20.2125 6.75 19.64V3.36C6.75 2.78875 6.75 2.50125 6.7025 2.26125C6.60545 1.77674 6.367 1.33186 6.01727 0.98279C5.66753 0.63372 5.22219 0.396121 4.7375 0.3C4.49625 0.25 4.20625 0.25 3.625 0.25C3.04375 0.25 2.75375 0.25 2.5125 0.2975C2.02708 0.393658 1.58111 0.631715 1.23108 0.981519C0.881057 1.33132 0.642717 1.77714 0.54625 2.2625C0.5 2.50375 0.5 2.79375 0.5 3.375Z" />
</svg>
