<svg width="15" height="16" viewBox="0 0 15 16" fill="black"
  xmlns="http://www.w3.org/2000/svg">
  <path d="M14.2661 9.51598C14.4975 9.33684 14.6849 9.10706 14.8138 8.84428C14.9427 8.5815 15.0098 8.29269 15.0098 7.99999C15.0098 7.70729 14.9427 7.41847 14.8138 7.15569C14.6849 6.89291 14.4975 6.66313 14.2661 6.48399C11.2682 4.16515 7.92123 2.33706 4.35006 1.06798L3.69706 0.835985C2.44906 0.392985 1.13006 1.23699 0.961056 2.52599C0.489056 6.16006 0.489056 9.83991 0.961056 13.474C1.13106 14.763 2.44906 15.607 3.69706 15.164L4.35006 14.932C7.92123 13.6629 11.2682 11.8348 14.2661 9.51598Z" />
</svg>
