<svg width="26" height="26" viewBox="0 0 26 26" fill="#FF6F61"
  xmlns="http://www.w3.org/2000/svg">
  <path d="M13 9.875L11.0713 7.94629C11.3105 7.33105 11.4375 6.66699 11.4375 5.96875C11.4375 2.94629 8.99121 0.5 5.96875 0.5C2.94629 0.5 0.5 2.94629 0.5 5.96875C0.5 8.99121 2.94629 11.4375 5.96875 11.4375C6.66699 11.4375 7.33105 11.3057 7.94629 11.0713L9.875 13L7.94629 14.9287C7.33105 14.6895 6.66699 14.5625 5.96875 14.5625C2.94629 14.5625 0.5 17.0088 0.5 20.0312C0.5 23.0537 2.94629 25.5 5.96875 25.5C8.99121 25.5 11.4375 23.0537 11.4375 20.0312C11.4375 19.333 11.3057 18.6689 11.0713 18.0537L24.875 4.25C25.2217 3.90332 25.2217 3.34668 24.875 3C23.4932 1.61816 21.2568 1.61816 19.875 3L13 9.875ZM14.1035 17.2285L19.875 23C21.2568 24.3818 23.4932 24.3818 24.875 23C25.2217 22.6533 25.2217 22.0967 24.875 21.75L17.2285 14.1035L14.1035 17.2285ZM3.625 5.96875C3.625 5.66096 3.68562 5.35619 3.80341 5.07184C3.92119 4.78748 4.09383 4.52911 4.31147 4.31147C4.52911 4.09383 4.78748 3.92119 5.07184 3.80341C5.35619 3.68562 5.66096 3.625 5.96875 3.625C6.27654 3.625 6.58131 3.68562 6.86566 3.80341C7.15002 3.92119 7.40839 4.09383 7.62603 4.31147C7.84367 4.52911 8.01631 4.78748 8.13409 5.07184C8.25188 5.35619 8.3125 5.66096 8.3125 5.96875C8.3125 6.27654 8.25188 6.58131 8.13409 6.86566C8.01631 7.15002 7.84367 7.40839 7.62603 7.62603C7.40839 7.84367 7.15002 8.01631 6.86566 8.13409C6.58131 8.25188 6.27654 8.3125 5.96875 8.3125C5.66096 8.3125 5.35619 8.25188 5.07184 8.13409C4.78748 8.01631 4.52911 7.84367 4.31147 7.62603C4.09383 7.40839 3.92119 7.15002 3.80341 6.86566C3.68562 6.58131 3.625 6.27654 3.625 5.96875ZM5.96875 17.6875C6.27654 17.6875 6.58131 17.7481 6.86566 17.8659C7.15002 17.9837 7.40839 18.1563 7.62603 18.374C7.84367 18.5916 8.01631 18.85 8.13409 19.1343C8.25188 19.4187 8.3125 19.7235 8.3125 20.0312C8.3125 20.339 8.25188 20.6438 8.13409 20.9282C8.01631 21.2125 7.84367 21.4709 7.62603 21.6885C7.40839 21.9062 7.15002 22.0788 6.86566 22.1966C6.58131 22.3144 6.27654 22.375 5.96875 22.375C5.66096 22.375 5.35619 22.3144 5.07184 22.1966C4.78748 22.0788 4.52911 21.9062 4.31147 21.6885C4.09383 21.4709 3.92119 21.2125 3.80341 20.9282C3.68562 20.6438 3.625 20.339 3.625 20.0312C3.625 19.7235 3.68562 19.4187 3.80341 19.1343C3.92119 18.85 4.09383 18.5916 4.31147 18.374C4.52911 18.1563 4.78748 17.9837 5.07184 17.8659C5.35619 17.7481 5.66096 17.6875 5.96875 17.6875Z" />
</svg>
