<svg width="43" height="43" viewBox="0 0 43 43" fill="none" xmlns="http://www.w3.org/2000/svg">
<g filter="url(#filter0_d_351_2946)">
<path d="M19.7917 29.4583C27.3396 29.4583 33.4583 23.3396 33.4583 15.7917C33.4583 8.24377 27.3396 2.125 19.7917 2.125C12.2438 2.125 6.125 8.24377 6.125 15.7917C6.125 23.3396 12.2438 29.4583 19.7917 29.4583Z" fill="#657CFF"/>
<path d="M36.875 32.875L29.4437 25.4437M33.4583 15.7917C33.4583 23.3396 27.3396 29.4583 19.7917 29.4583C12.2438 29.4583 6.125 23.3396 6.125 15.7917C6.125 8.24377 12.2438 2.125 19.7917 2.125C27.3396 2.125 33.4583 8.24377 33.4583 15.7917Z" stroke="#1A237E" stroke-width="4" stroke-linecap="round" stroke-linejoin="round"/>
</g>
<defs>
<filter id="filter0_d_351_2946" x="0.125" y="0.125" width="42.75" height="42.75" filterUnits="userSpaceOnUse" color-interpolation-filters="sRGB">
<feFlood flood-opacity="0" result="BackgroundImageFix"/>
<feColorMatrix in="SourceAlpha" type="matrix" values="0 0 0 0 0 0 0 0 0 0 0 0 0 0 0 0 0 0 127 0" result="hardAlpha"/>
<feOffset dy="4"/>
<feGaussianBlur stdDeviation="2"/>
<feComposite in2="hardAlpha" operator="out"/>
<feColorMatrix type="matrix" values="0 0 0 0 0 0 0 0 0 0 0 0 0 0 0 0 0 0 0.25 0"/>
<feBlend mode="normal" in2="BackgroundImageFix" result="effect1_dropShadow_351_2946"/>
<feBlend mode="normal" in="SourceGraphic" in2="effect1_dropShadow_351_2946" result="shape"/>
</filter>
</defs>
</svg>
