<svg width="60" height="60" viewBox="0 0 60 60" fill="none" xmlns="http://www.w3.org/2000/svg">
<path d="M30 5C30.4973 5 30.9742 5.19754 31.3258 5.54917C31.6775 5.90081 31.875 6.37772 31.875 6.875V10.625C31.875 11.1223 31.6775 11.5992 31.3258 11.9508C30.9742 12.3025 30.4973 12.5 30 12.5C29.5027 12.5 29.0258 12.3025 28.6742 11.9508C28.3225 11.5992 28.125 11.1223 28.125 10.625V6.875C28.125 6.37772 28.3225 5.90081 28.6742 5.54917C29.0258 5.19754 29.5027 5 30 5ZM30 42.5C33.3152 42.5 36.4946 41.183 38.8388 38.8388C41.183 36.4946 42.5 33.3152 42.5 30C42.5 26.6848 41.183 23.5054 38.8388 21.1612C36.4946 18.817 33.3152 17.5 30 17.5C26.6848 17.5 23.5054 18.817 21.1612 21.1612C18.817 23.5054 17.5 26.6848 17.5 30C17.5 33.3152 18.817 36.4946 21.1612 38.8388C23.5054 41.183 26.6848 42.5 30 42.5ZM53.125 31.875C53.6223 31.875 54.0992 31.6775 54.4508 31.3258C54.8025 30.9742 55 30.4973 55 30C55 29.5027 54.8025 29.0258 54.4508 28.6742C54.0992 28.3225 53.6223 28.125 53.125 28.125H49.375C48.8777 28.125 48.4008 28.3225 48.0492 28.6742C47.6975 29.0258 47.5 29.5027 47.5 30C47.5 30.4973 47.6975 30.9742 48.0492 31.3258C48.4008 31.6775 48.8777 31.875 49.375 31.875H53.125ZM30 47.5C30.4973 47.5 30.9742 47.6975 31.3258 48.0492C31.6775 48.4008 31.875 48.8777 31.875 49.375V53.125C31.875 53.6223 31.6775 54.0992 31.3258 54.4508C30.9742 54.8025 30.4973 55 30 55C29.5027 55 29.0258 54.8025 28.6742 54.4508C28.3225 54.0992 28.125 53.6223 28.125 53.125V49.375C28.125 48.8777 28.3225 48.4008 28.6742 48.0492C29.0258 47.6975 29.5027 47.5 30 47.5ZM10.625 31.875C11.1223 31.875 11.5992 31.6775 11.9508 31.3258C12.3025 30.9742 12.5 30.4973 12.5 30C12.5 29.5027 12.3025 29.0258 11.9508 28.6742C11.5992 28.3225 11.1223 28.125 10.625 28.125H6.875C6.37772 28.125 5.90081 28.3225 5.54917 28.6742C5.19754 29.0258 5 29.5027 5 30C5 30.4973 5.19754 30.9742 5.54917 31.3258C5.90081 31.6775 6.37772 31.875 6.875 31.875H10.625ZM10.55 10.55C10.9016 10.1989 11.3781 10.0016 11.875 10.0016C12.3719 10.0016 12.8484 10.1989 13.2 10.55L16.95 14.3C17.2812 14.6554 17.4615 15.1256 17.4529 15.6113C17.4444 16.0971 17.2476 16.5605 16.9041 16.9041C16.5605 17.2476 16.0971 17.4444 15.6113 17.4529C15.1256 17.4615 14.6554 17.2812 14.3 16.95L10.55 13.2C10.1989 12.8484 10.0016 12.3719 10.0016 11.875C10.0016 11.3781 10.1989 10.9016 10.55 10.55ZM13.2 49.45C13.0283 49.6342 12.8213 49.782 12.5913 49.8845C12.3613 49.9869 12.1131 50.042 11.8613 50.0465C11.6095 50.0509 11.3595 50.0046 11.126 49.9103C10.8925 49.816 10.6805 49.6756 10.5024 49.4976C10.3244 49.3195 10.184 49.1075 10.0897 48.874C9.99539 48.6405 9.94908 48.3905 9.95352 48.1387C9.95796 47.8869 10.0131 47.6387 10.1155 47.4087C10.218 47.1787 10.3658 46.9717 10.55 46.8L14.3 43.05C14.4717 42.8658 14.6787 42.718 14.9087 42.6155C15.1387 42.5131 15.3869 42.458 15.6387 42.4535C15.8905 42.4491 16.1405 42.4954 16.374 42.5897C16.6075 42.684 16.8195 42.8244 16.9976 43.0024C17.1756 43.1805 17.316 43.3925 17.4103 43.626C17.5046 43.8595 17.5509 44.1095 17.5465 44.3613C17.542 44.6131 17.4869 44.8613 17.3845 45.0913C17.282 45.3213 17.1342 45.5283 16.95 45.7L13.2 49.45ZM49.45 10.55C49.0984 10.1989 48.6219 10.0016 48.125 10.0016C47.6281 10.0016 47.1516 10.1989 46.8 10.55L43.05 14.3C42.7188 14.6554 42.5385 15.1256 42.5471 15.6113C42.5556 16.0971 42.7524 16.5605 43.0959 16.9041C43.4395 17.2476 43.9029 17.4444 44.3887 17.4529C44.8744 17.4615 45.3446 17.2812 45.7 16.95L49.45 13.2C49.8011 12.8484 49.9984 12.3719 49.9984 11.875C49.9984 11.3781 49.8011 10.9016 49.45 10.55ZM46.8 49.45C46.9717 49.6342 47.1787 49.782 47.4087 49.8845C47.6387 49.9869 47.8869 50.042 48.1387 50.0465C48.3905 50.0509 48.6405 50.0046 48.874 49.9103C49.1075 49.816 49.3195 49.6756 49.4976 49.4976C49.6756 49.3195 49.816 49.1075 49.9103 48.874C50.0046 48.6405 50.0509 48.3905 50.0465 48.1387C50.042 47.8869 49.9869 47.6387 49.8845 47.4087C49.782 47.1787 49.6342 46.9717 49.45 46.8L45.7 43.05C45.5283 42.8658 45.3213 42.718 45.0913 42.6155C44.8613 42.5131 44.6131 42.458 44.3613 42.4535C44.1095 42.4491 43.8595 42.4954 43.626 42.5897C43.3925 42.684 43.1805 42.8244 43.0024 43.0024C42.8244 43.1805 42.684 43.3925 42.5897 43.626C42.4954 43.8595 42.4491 44.1095 42.4535 44.3613C42.458 44.6131 42.5131 44.8613 42.6155 45.0913C42.718 45.3213 42.8658 45.5283 43.05 45.7L46.8 49.45Z" fill="#FFF7EC"/>
<path d="M21.9161 33.3485C22.3558 34.4101 23.0003 35.3747 23.8128 36.1872C24.6253 36.9997 25.5899 37.6442 26.6515 38.0839C27.7131 38.5237 28.8509 38.75 30 38.75C32.3206 38.75 34.5462 37.8281 36.1872 36.1872C37.8281 34.5462 38.75 32.3206 38.75 30M21.9161 26.6515C22.3558 25.5899 23.0003 24.6253 23.8128 23.8128C24.6253 23.0003 25.5899 22.3558 26.6515 21.9161C27.7131 21.4763 30 21.25 30 21.25M30 5C30.4973 5 30.9742 5.19754 31.3258 5.54917C31.6775 5.90081 31.875 6.37772 31.875 6.875V10.625C31.875 11.1223 31.6775 11.5992 31.3258 11.9508C30.9742 12.3025 30.4973 12.5 30 12.5C29.5027 12.5 29.0258 12.3025 28.6742 11.9508C28.3225 11.5992 28.125 11.1223 28.125 10.625V6.875C28.125 6.37772 28.3225 5.90081 28.6742 5.54917C29.0258 5.19754 29.5027 5 30 5ZM30 42.5C33.3152 42.5 36.4946 41.183 38.8388 38.8388C41.183 36.4946 42.5 33.3152 42.5 30C42.5 26.6848 41.183 23.5054 38.8388 21.1612C36.4946 18.817 33.3152 17.5 30 17.5C26.6848 17.5 23.5054 18.817 21.1612 21.1612C18.817 23.5054 17.5 26.6848 17.5 30C17.5 33.3152 18.817 36.4946 21.1612 38.8388C23.5054 41.183 26.6848 42.5 30 42.5ZM53.125 31.875C53.6223 31.875 54.0992 31.6775 54.4508 31.3258C54.8025 30.9742 55 30.4973 55 30C55 29.5027 54.8025 29.0258 54.4508 28.6742C54.0992 28.3225 53.6223 28.125 53.125 28.125H49.375C48.8777 28.125 48.4008 28.3225 48.0492 28.6742C47.6975 29.0258 47.5 29.5027 47.5 30C47.5 30.4973 47.6975 30.9742 48.0492 31.3258C48.4008 31.6775 48.8777 31.875 49.375 31.875H53.125ZM30 47.5C30.4973 47.5 30.9742 47.6975 31.3258 48.0492C31.6775 48.4008 31.875 48.8777 31.875 49.375V53.125C31.875 53.6223 31.6775 54.0992 31.3258 54.4508C30.9742 54.8025 30.4973 55 30 55C29.5027 55 29.0258 54.8025 28.6742 54.4508C28.3225 54.0992 28.125 53.6223 28.125 53.125V49.375C28.125 48.8777 28.3225 48.4008 28.6742 48.0492C29.0258 47.6975 29.5027 47.5 30 47.5ZM10.625 31.875C11.1223 31.875 11.5992 31.6775 11.9508 31.3258C12.3025 30.9742 12.5 30.4973 12.5 30C12.5 29.5027 12.3025 29.0258 11.9508 28.6742C11.5992 28.3225 11.1223 28.125 10.625 28.125H6.875C6.37772 28.125 5.90081 28.3225 5.54917 28.6742C5.19754 29.0258 5 29.5027 5 30C5 30.4973 5.19754 30.9742 5.54917 31.3258C5.90081 31.6775 6.37772 31.875 6.875 31.875H10.625ZM10.55 10.55C10.9016 10.1989 11.3781 10.0016 11.875 10.0016C12.3719 10.0016 12.8484 10.1989 13.2 10.55L16.95 14.3C17.2812 14.6554 17.4615 15.1256 17.4529 15.6113C17.4444 16.0971 17.2476 16.5605 16.9041 16.9041C16.5605 17.2476 16.0971 17.4444 15.6113 17.4529C15.1256 17.4615 14.6554 17.2812 14.3 16.95L10.55 13.2C10.1989 12.8484 10.0016 12.3719 10.0016 11.875C10.0016 11.3781 10.1989 10.9016 10.55 10.55ZM13.2 49.45C13.0283 49.6342 12.8213 49.782 12.5913 49.8845C12.3613 49.9869 12.1131 50.042 11.8613 50.0465C11.6095 50.0509 11.3595 50.0046 11.126 49.9103C10.8925 49.816 10.6805 49.6756 10.5024 49.4976C10.3244 49.3195 10.184 49.1075 10.0897 48.874C9.99539 48.6405 9.94908 48.3905 9.95352 48.1387C9.95796 47.8869 10.0131 47.6387 10.1155 47.4087C10.218 47.1787 10.3658 46.9717 10.55 46.8L14.3 43.05C14.4717 42.8658 14.6787 42.718 14.9087 42.6155C15.1387 42.5131 15.3869 42.458 15.6387 42.4535C15.8905 42.4491 16.1405 42.4954 16.374 42.5897C16.6075 42.684 16.8195 42.8244 16.9976 43.0024C17.1756 43.1805 17.316 43.3925 17.4103 43.626C17.5046 43.8595 17.5509 44.1095 17.5465 44.3613C17.542 44.6131 17.4869 44.8613 17.3845 45.0913C17.282 45.3213 17.1342 45.5283 16.95 45.7L13.2 49.45ZM49.45 10.55C49.0984 10.1989 48.6219 10.0016 48.125 10.0016C47.6281 10.0016 47.1516 10.1989 46.8 10.55L43.05 14.3C42.7188 14.6554 42.5385 15.1256 42.5471 15.6113C42.5556 16.0971 42.7524 16.5605 43.0959 16.9041C43.4395 17.2476 43.9029 17.4444 44.3887 17.4529C44.8744 17.4615 45.3446 17.2812 45.7 16.95L49.45 13.2C49.8011 12.8484 49.9984 12.3719 49.9984 11.875C49.9984 11.3781 49.8011 10.9016 49.45 10.55ZM46.8 49.45C46.9717 49.6342 47.1787 49.782 47.4087 49.8845C47.6387 49.9869 47.8869 50.042 48.1387 50.0465C48.3905 50.0509 48.6405 50.0046 48.874 49.9103C49.1075 49.816 49.3195 49.6756 49.4976 49.4976C49.6756 49.3195 49.816 49.1075 49.9103 48.874C50.0046 48.6405 50.0509 48.3905 50.0465 48.1387C50.042 47.8869 49.9869 47.6387 49.8845 47.4087C49.782 47.1787 49.6342 46.9717 49.45 46.8L45.7 43.05C45.5283 42.8658 45.3213 42.718 45.0913 42.6155C44.8613 42.5131 44.6131 42.458 44.3613 42.4535C44.1095 42.4491 43.8595 42.4954 43.626 42.5897C43.3925 42.684 43.1805 42.8244 43.0024 43.0024C42.8244 43.1805 42.684 43.3925 42.5897 43.626C42.4954 43.8595 42.4491 44.1095 42.4535 44.3613C42.458 44.6131 42.5131 44.8613 42.6155 45.0913C42.718 45.3213 42.8658 45.5283 43.05 45.7L46.8 49.45Z" stroke="#FFF7EC" stroke-width="2"/>
</svg>
