<svg width="49" height="43" viewBox="0 0 49 43" fill="none"
  xmlns="http://www.w3.org/2000/svg">
  <path d="M0 24.24C0 23.68 0.2 23.24 0.6 22.88C0.94 22.52 1.4 22.36 1.96 22.36H6.58C6.82795 22.3527 7.07476 22.3964 7.30507 22.4886C7.53538 22.5807 7.74427 22.7193 7.91873 22.8956C8.0932 23.072 8.22951 23.2823 8.31919 23.5136C8.40886 23.7449 8.44999 23.9921 8.44 24.24C8.44 24.8 8.26 25.28 7.9 25.66C7.54 26.04 7.1 26.24 6.58 26.24H1.98C1.44 26.24 0.98 26.04 0.6 25.64C0.2 25.24 0 24.78 0 24.24ZM6.58 8.52C6.58 7.96 6.74 7.5 7.08 7.16C7.48 6.76 7.94 6.56 8.48 6.56C9.06 6.56 9.5 6.76 9.84 7.16L13.08 10.42C14 11.3 14 12.2 13.08 13.12C12.9139 13.2982 12.7126 13.4401 12.4888 13.5365C12.265 13.6328 12.0237 13.6817 11.78 13.68C11.34 13.68 10.9 13.5 10.42 13.12L7.1 9.88C6.75483 9.51252 6.56805 9.02402 6.58 8.52ZM10.52 35.08C10.52 34.56 10.72 34.1 11.12 33.7C11.48 33.34 11.94 33.16 12.48 33.16H18.92C19.14 33.16 19.32 33.2 19.48 33.32L24.18 37.76L28.96 33.3C29.1 33.2 29.3 33.14 29.54 33.14H36.14C36.68 33.14 37.14 33.32 37.52 33.7C37.9 34.08 38.1 34.54 38.1 35.06C38.1 35.6 37.9 36.06 37.52 36.44C37.14 36.82 36.68 37.02 36.14 37.02H30.78L24.5 42.7C24.26 42.88 24.04 42.88 23.84 42.7L17.68 37.02H12.48C11.94 37.02 11.48 36.82 11.1 36.44C10.9125 36.2673 10.7639 36.0568 10.6639 35.8223C10.5639 35.5879 10.5149 35.3348 10.52 35.08ZM12.4 24.24C12.4 26.22 12.78 27.98 13.56 29.48C13.68 29.7 13.86 29.8 14.1 29.8H17.84C18 29.8 18.1 29.76 18.14 29.66C18.18 29.56 34.56 29.92 34.44 29.78C33.26 28.3 16.22 26.12 16.22 24.24C16.22 22.04 17 20.16 18.58 18.62C20.16 17.08 22.06 16.3 24.28 16.3C26.48 16.3 28.36 17.08 29.94 18.62C31.5 20.18 32.3 22.04 32.3 24.22C32.3 26.1 15.28 28.32 14.1 29.8C13.96 29.94 30.34 29.54 30.38 29.64C30.42 29.74 30.52 29.78 30.68 29.78H34.44C34.7 29.78 34.86 29.68 34.92 29.46C35.74 27.9 36.16 26.14 36.16 24.22C36.16 22.64 35.84 21.1 35.22 19.64C34.6 18.18 33.74 16.9 32.68 15.84C31.62 14.78 30.36 13.94 28.9 13.3C27.4485 12.6709 25.8819 12.3508 24.3 12.36C22.7 12.36 21.16 12.68 19.7 13.3C18.24 13.94 16.98 14.78 15.92 15.84C14.86 16.9 14.02 18.16 13.38 19.64C12.74 21.12 12.4 22.66 12.4 24.24ZM22.32 6.62V1.96C22.32 1.42 22.52 0.960001 22.9 0.58C23.28 0.2 23.74 0 24.28 0C24.82 0 25.28 0.2 25.66 0.58C26.04 0.960001 26.24 1.42 26.24 1.96V6.6C26.24 7.14 26.04 7.6 25.66 7.98C25.28 8.36 24.82 8.56 24.28 8.56C23.74 8.56 23.28 8.36 22.9 7.98C22.7125 7.8073 22.5639 7.59675 22.4639 7.3623C22.3639 7.12785 22.3149 6.87483 22.32 6.62ZM34.86 11.78C34.86 11.22 35.04 10.76 35.38 10.44L38.64 7.18C38.96 6.78 39.42 6.58 40 6.58C40.54 6.58 41 6.78 41.36 7.16C41.72 7.54 41.9 8 41.9 8.54C41.9 9.1 41.74 9.56 41.4 9.9L38.08 13.16C37.62 13.54 37.16 13.72 36.7 13.72C36.4528 13.7258 36.2072 13.6789 35.9796 13.5823C35.752 13.4857 35.5476 13.3418 35.38 13.16C35.04 12.78 34.86 12.32 34.86 11.78ZM40.04 24.24C40.04 23.7 40.22 23.26 40.56 22.9C40.9 22.54 41.36 22.36 41.9 22.36H46.54C47.08 22.36 47.54 22.54 47.92 22.9C48.3 23.26 48.5 23.7 48.5 24.24C48.5 24.78 48.3 25.24 47.92 25.64C47.54 26.04 47.08 26.24 46.54 26.24H41.9C41.38 26.24 40.94 26.04 40.58 25.66C40.2202 25.2761 40.0262 24.7659 40.04 24.24Z" fill="#FF6F61"/>
  <path d="M35 23.5C35 27.0899 30.799 30 25 30C19.201 30 14 27.0899 14 23.5C14 19.9102 18.501 12.36 24.3 12.36C30.099 12.36 35 19.9102 35 23.5Z" fill="#FF6F61"/>
</svg>
