<svg width="100" height="100" viewBox="0 0 50 52" fill="#9E77ED" stroke="#5E1EE1"
  xmlns="http://www.w3.org/2000/svg">
  <path d="M36.4139 1.50353L36.4139 1.50348C36.0389 1.12841 35.5304 0.917622 35 0.91748L36.4139 1.50353ZM36.4139 1.50353L48.9139 14.0035L48.914 14.0036C49.2696 14.3591 49.4775 14.8347 49.4983 15.3351C49.5002 15.3806 49.5001 15.4185 49.5 15.4725C49.5 15.4841 49.5 15.4965 49.5 15.5099C49.5 16.9513 49.5001 34.7813 49.5 35.4174C49.5 35.6333 49.4348 35.8216 49.3081 36.0625C49.2594 36.1552 49.2073 36.2454 49.148 36.3482C49.1262 36.386 49.1033 36.4255 49.0794 36.4675C48.9937 36.6174 48.9003 36.7864 48.8131 36.9763C47.3895 40.0763 45.8634 42.4264 43.9362 44.3537C42.0089 46.2809 39.6588 47.807 36.5588 49.2306C35.8925 49.5366 35.5147 49.6901 34.8242 49.9494C31.279 51.2808 26.5401 51.2912 22.5494 50.9491C20.5643 50.7789 18.7835 50.5234 17.4558 50.31C16.8949 50.2199 16.4159 50.1374 16.0347 50.0718C15.9646 50.0597 15.8978 50.0482 15.8343 50.0373C15.6315 50.0026 15.4608 49.9737 15.3296 49.9535C15.2151 49.9359 15.0878 49.9175 15.0001 49.9175C14.7842 49.9174 14.5959 49.8523 14.3549 49.7256C14.2623 49.6769 14.1721 49.6248 14.0693 49.5655C14.0315 49.5437 13.992 49.5208 13.95 49.4968C13.8 49.4112 13.6311 49.3178 13.4412 49.2306C10.3412 47.807 7.99108 46.2809 6.06382 44.3537C4.13655 42.4264 2.61046 40.0763 1.18688 36.9763C0.696596 35.9087 0.5 34.7171 0.5 33.504V15.4176C0.5 15.4176 0.5 15.4175 0.5 15.4175C0.500142 14.8871 0.710926 14.3785 1.086 14.0036L1.08605 14.0035L13.5861 1.50353L13.5861 1.50348M36.4139 1.50353L13.5861 1.50348M13.5861 1.50348C13.9611 1.12841 14.4696 0.917622 15 0.91748C15 0.91748 15.0001 0.91748 15.0001 0.91748M13.5861 1.50348L15.0001 0.91748M15.0001 0.91748H34.9999H15.0001Z"/>
</svg>
