<svg width="100" height="100" viewBox="0 0 56 54" fill="#FFBA57" stroke="#995A00"
  xmlns="http://www.w3.org/2000/svg">
  <path d="M55.5 14.0641C55.5 19.1861 54.7821 24.2558 53.389 28.9827C51.9958 33.71 49.9562 37.997 47.3916 41.6015C44.827 45.206 41.7911 48.0529 38.4636 49.9901C35.1374 51.9265 31.5825 52.9178 28 52.9178C24.4175 52.9178 20.8626 51.9265 17.5364 49.9901C14.2089 48.0529 11.173 45.206 8.60841 41.6015C6.04383 37.997 4.00415 33.71 2.61098 28.9827C1.21788 24.2558 0.5 19.1861 0.5 14.0641C0.5 13.5544 0.71207 12.959 1.16823 12.2875C1.62227 11.6191 2.29575 10.9087 3.15974 10.1797C4.8873 8.7221 7.32191 7.23596 10.1151 5.90112C15.7085 3.22806 22.6328 1.21191 28 1.21191C33.3672 1.21191 40.2914 3.22806 45.8849 5.90112C48.6781 7.23596 51.1127 8.7221 52.8403 10.1797C53.7043 10.9087 54.3777 11.6191 54.8318 12.2875C55.2879 12.959 55.5 13.5544 55.5 14.0641Z" />
</svg>
