<svg width="100%" height="100%" viewBox="0 0 36 44" fill="none"
  xmlns="http://www.w3.org/2000/svg">
  <path d="M20.4042 42.5913C20.0798 42.7764 19.742 42.937 19.3937 43.0718C17.6819 43.6987 15.8024 43.6929 14.0945 43.0556C12.3866 42.4183 10.9628 41.1913 10.0802 39.5963L1.442 24.378C0.119527 22.0904 -0.313255 19.3956 0.226431 16.809C0.766118 14.2224 2.24039 11.9255 4.36729 10.3576C6.29308 8.99128 8.62518 8.31812 10.9829 8.44804L25.068 9.04432C26.9348 9.13108 28.7443 9.71593 30.3088 10.7381C31.8732 11.7604 33.1356 13.1827 33.9648 14.8575C34.794 16.5323 35.1598 18.3984 35.0243 20.2623C34.8887 22.1262 34.2568 23.9199 33.194 25.4571L22.8729 40.3345C22.2304 41.263 21.3865 42.0345 20.4042 42.5913ZM27.0311 2.609L21.8131 5.57083C20.4287 6.35433 18.7902 6.55681 17.2567 6.13385C15.7233 5.7109 14.4202 4.69705 13.6333 3.31466L12.8928 2.01016L15.5018 0.529241L16.2423 1.83374C16.635 2.52569 17.2866 3.03328 18.0536 3.24484C18.8206 3.45639 19.6402 3.35459 20.3322 2.96183L25.5502 0L27.0311 2.609Z" fill="#FF6B6B"/>
</svg>
