<svg width="100%" height="100%" viewBox="0 0 38 34" fill="#C4C4C4"
  xmlns="http://www.w3.org/2000/svg">
  <path d="M19.2499 32.2454L19 32.1944L18.7501 32.2454L18.4611 32.3044C18.4602 32.3046 18.4594 32.3047 18.4586 32.3049C13.9127 33.2128 9.85366 32.6599 6.96637 30.3537C4.11523 28.0689 1.75 23.5338 1.75 15.0002C1.75 6.10306 3.77728 3.18716 5.72883 2.21031C6.81828 1.66652 8.34039 1.45267 10.4969 1.69996C12.6495 1.94906 15.1865 2.62861 18.1307 3.61004L18.1335 3.61094L18.6535 3.78294L19.0866 3.92622L19.5102 3.75678L20.0199 3.55291C20.02 3.55286 20.0201 3.55282 20.0202 3.55278C22.4423 2.58477 24.6882 1.93739 26.6713 1.69926C28.6583 1.46066 30.3014 1.64219 31.587 2.24271L31.588 2.2432C33.8531 3.2987 36.25 6.34487 36.25 15.0002C36.25 23.5375 33.8859 28.0699 31.0331 30.3521C28.1461 32.6618 24.0875 33.2148 19.5417 32.305C19.5409 32.3048 19.5402 32.3047 19.5394 32.3045L19.2499 32.2454Z" stroke="#C4C4C4" stroke-width="2.5" stroke-linecap="round"/>
</svg>
