<svg wwidth="100%" height="100%" viewBox="0 0 36 62" fill="none"
  xmlns="http://www.w3.org/2000/svg">
  <path fill-rule="evenodd" clip-rule="evenodd" d="M16.6292 0.698822C17.0914 0.433727 17.6595 0.433726 18.1218 0.698818C19.6124 1.55377 20.8516 2.78632 21.7144 4.27239C22.4258 5.49746 22.8607 6.8592 22.9936 8.26245C24.493 7.42394 25.7349 7.10551 26.768 7.11292C27.5771 7.11873 28.2082 7.32603 28.6687 7.58224C28.8945 7.7079 29.0706 7.84038 29.2016 7.95555C29.267 8.0131 29.3212 8.06639 29.3649 8.11253C29.3867 8.13562 29.406 8.15696 29.4227 8.17621C29.4311 8.18583 29.4389 8.19495 29.446 8.2035L29.4563 8.21591L29.4611 8.22179L29.4634 8.22465C29.4645 8.22605 29.4657 8.22745 28.2966 9.16725L29.4657 8.22745C29.8273 8.67735 29.8987 9.29487 29.6493 9.81544C29.3999 10.336 28.8738 10.6673 28.2966 10.6673C27.6191 10.6673 27.3872 10.7741 27.3349 10.8064C27.3183 10.8351 27.2418 10.9946 27.1869 11.5917C27.173 11.7423 27.1617 11.9097 27.1493 12.0918C27.0874 13.0062 27.0002 14.293 26.4435 15.6967C26.4571 15.707 26.4706 15.7174 26.4841 15.728C27.0942 16.2073 27.4093 16.8949 27.5779 17.2627L27.5968 17.3039C27.812 17.7723 27.9123 17.9906 28.0567 18.162C28.1415 18.2626 28.2489 18.3586 28.5388 18.406C29.3098 18.5321 29.8549 19.229 29.7917 20.0078C29.7284 20.7865 29.0779 21.3863 28.2966 21.3863C28.1034 21.3863 27.9179 21.3839 27.7399 21.3797C25.7743 20.7206 23.491 20.2814 21.0798 20.0976C21.729 19.2552 22.3887 18.6453 23.2384 18.3519C22.4791 18.3924 21.7774 18.3314 21.2417 18.2849C21.0319 18.2666 20.8475 18.2506 20.6951 18.2438C20.2515 18.2238 19.9821 18.2523 19.7807 18.3193C19.6253 18.3711 19.443 18.4678 19.2246 18.7175L19.213 18.7346L19.0708 18.9432L19.0701 18.9446C19.037 19.0095 18.9683 19.1374 18.8562 19.2731C18.8723 19.3204 18.8878 19.3668 18.9029 19.4121C18.9062 19.4221 18.9094 19.4321 18.9125 19.4421C18.9703 19.6285 19.0237 19.8161 19.0726 20.0048C18.8822 20.0016 18.6913 20 18.5 20C17.6455 20 16.7982 20.0319 15.9661 20.0941C15.9104 19.9355 15.8582 19.7982 15.8021 19.6706C15.7874 19.6373 15.774 19.6034 15.7618 19.5692C15.3941 18.7542 14.8808 18.0144 14.2481 17.3856C14.1809 17.4277 14.1053 17.477 14.0173 17.5356C13.9867 17.556 13.9538 17.5781 13.9187 17.6017L13.9167 17.603C13.6498 17.7824 13.2593 18.0449 12.8601 18.2307C12.601 18.3514 12.2627 18.4774 11.8734 18.5255C12.7044 18.8559 13.3604 19.4645 14.0044 20.3009C12.4599 20.5123 10.9943 20.8318 9.6627 21.2492C9.56128 21.2543 9.45007 21.2608 9.32765 21.2686C9.23814 21.2743 9.14449 21.2806 9.04663 21.2871C8.39485 21.3305 7.55619 21.3863 6.50909 21.3863C5.72871 21.3863 5.07869 20.7879 5.01422 20.0102C4.94975 19.2325 5.49238 18.5353 6.26211 18.4068C6.69704 18.3342 6.90182 18.1869 7.04128 18.0479C7.21618 17.8736 7.33348 17.677 7.55213 17.3104L7.63057 17.1791L7.63778 17.167C7.84339 16.8236 8.2167 16.1999 8.88374 15.7896C8.45705 14.7856 8.27295 13.9357 8.14385 13.3397C8.09863 13.1309 8.06011 12.9531 8.02031 12.8109C7.96848 12.6258 7.93113 12.5482 7.91441 12.5195C7.84111 12.4786 7.51627 12.3486 6.50909 12.3486C6.00362 12.3486 5.53214 12.0941 5.25488 11.6714C4.97762 11.2487 4.93188 10.7149 5.1332 10.2512L6.50909 10.8486C5.1332 10.2512 5.13366 10.2502 5.13412 10.2491L5.13509 10.2469L5.13715 10.2422L5.14183 10.2317L5.15339 10.2064C5.16208 10.1877 5.1728 10.1652 5.18562 10.1394C5.21122 10.0879 5.24546 10.0227 5.28904 9.94693C5.37576 9.79616 5.50211 9.59903 5.6746 9.38359C6.01723 8.95562 6.56635 8.4256 7.37352 8.06942C8.56626 7.54309 10.0273 7.50941 11.762 8.21527C11.9001 6.8287 12.3332 5.48374 13.0365 4.2724C13.8994 2.78633 15.1385 1.55378 16.6292 0.698822ZM12.3896 11.9838C12.4279 12.0177 12.4682 12.0497 12.5103 12.0798C13.3448 12.6758 14.0561 13.4158 14.6152 14.2583C14.2738 14.2268 13.945 14.2743 13.6579 14.3615C13.1307 14.5218 12.6516 14.8408 12.3647 15.0318L12.251 15.1076C12.1427 15.1798 12.0496 15.2419 11.967 15.2954C11.4515 14.3535 11.2807 13.5904 11.1133 12.8427C11.0508 12.5633 10.9887 12.2859 10.9093 12.0023C10.8156 11.6676 10.6822 11.2875 10.4539 10.922C10.9769 11.1138 11.6163 11.4427 12.3896 11.9838ZM19.9909 15.2521C20.2881 15.2314 20.5707 15.2352 20.8298 15.2468C21.1937 15.2632 21.5127 15.2896 21.8053 15.3138C22.3515 15.359 22.8059 15.3966 23.289 15.347C23.9793 14.1741 24.062 13.0841 24.1492 11.9348C24.1647 11.731 24.1803 11.5252 24.1995 11.3168C24.2083 11.2215 24.2182 11.119 24.2309 11.011C23.6532 11.3522 22.9793 11.8183 22.2014 12.4524C21.2654 13.2158 20.5124 14.1727 19.9909 15.2521ZM23.0371 9.16267L23.0371 9.16406L21.567 9.1671L23.0371 9.16103L23.0371 9.16267ZM21.567 9.1671C21.1629 9.45192 20.7427 9.77106 20.3056 10.1273L21.567 9.1671ZM24.6338 18.1545L24.6697 18.1552L24.6669 18.1504C24.6568 18.1515 24.6458 18.1529 24.6338 18.1545ZM24.7591 18.148C24.7588 18.1483 24.7544 18.1481 24.7466 18.1464C24.7555 18.1469 24.7594 18.1477 24.7591 18.148ZM17.5862 13.3755C18.1916 12.2866 18.9757 11.3025 19.9093 10.4661C19.996 10.0411 20.0389 9.60785 20.0371 9.1733L20.0371 9.17028C20.0346 7.97887 19.7183 6.80912 19.1201 5.7788C18.6725 5.00796 18.0789 4.33551 17.3755 3.79747C16.6721 4.33551 16.0785 5.00796 15.6309 5.7788C15.0335 6.80778 14.7172 7.97582 14.714 9.16562C14.7153 9.45437 14.7337 9.74264 14.7689 10.029C15.9209 10.955 16.8759 12.0932 17.5862 13.3755ZM27.33 10.8096C27.3271 10.8115 27.3252 10.813 27.324 10.814C27.3228 10.8149 27.3224 10.8154 27.3225 10.8155C27.3227 10.8157 27.3254 10.8138 27.33 10.8096Z" fill="#C890F4"/>
  <path d="M30.4973 27C30.4973 26.8154 30.4718 26.6371 30.4225 26.4646C29.7533 25.6704 29.0283 24.9392 28.2539 24.28C27.7895 24.0142 27.2671 23.7561 26.7 23.5C24.45 22.4839 21.6819 21.5818 18.5 21.5818C15.3181 21.5818 12.2665 22.1527 10.0166 23.1688C9.227 23.5254 8.39838 23.9266 7.65538 24.3592C6.76847 25.1243 5.94757 25.9841 5.20229 26.9247C5.20074 26.9498 5.19995 26.9749 5.19995 27H5.14296C2.23959 30.7013 0.5 35.6388 0.5 40.9884C0.5 52.1082 8.10094 61.5937 18.0052 61.5937C27.8996 61.5937 35.5 52.1074 35.5 40.9884C35.5 35.6384 33.7591 30.7004 30.8577 27H30.4973Z" fill="#C890F4"/>
</svg>
