<svg width="100%" height="100%" viewBox="0 0 34 43" fill="none"
  xmlns="http://www.w3.org/2000/svg">
  <path fill-rule="evenodd" clip-rule="evenodd" d="M15.2 9.92424C15.1225 9.77063 15.0792 9.84967 15.0651 9.95835C15.1099 9.94658 15.1549 9.93521 15.2 9.92424ZM16.541 6.72324L16.538 6.72024C14.1042 6.82543 11.7805 7.76389 9.95631 9.37838C8.13209 10.9929 6.91818 13.1853 6.518 15.5882L5.918 19.2092C2.591 21.6812 0.5 25.2452 0.5 29.2112C0.5 36.6662 7.886 42.7112 17 42.7112C26.114 42.7112 33.5 36.6662 33.5 29.2112C33.5 25.2452 31.412 21.6812 28.082 19.2092L27.482 15.5882C27.1472 13.5801 26.2426 11.7103 24.8758 10.2015C23.5089 8.69266 21.7374 7.60823 19.772 7.07724L16.541 6.72324ZM21.437 1.05624C20.072 1.86924 18.4874 3.91 17.3954 5.5H20.5C21.361 4.246 22.007 4.20924 22.97 3.63624C23.1394 3.53559 23.2873 3.40255 23.4053 3.24472C23.5233 3.0869 23.6091 2.90738 23.6577 2.71641C23.7063 2.52545 23.7168 2.32678 23.6886 2.13175C23.6605 1.93672 23.5942 1.74915 23.4935 1.57974C23.3928 1.41034 23.2598 1.26242 23.102 1.14443C22.9442 1.02644 22.7646 0.94069 22.5737 0.892079C22.3827 0.843467 22.184 0.832945 21.989 0.861112C21.794 0.88928 21.6064 0.955586 21.437 1.05624Z" fill="#8C9EFF"/>
</svg>
