<svg width="100%" height="100%" viewBox="0 0 44 44" fill="none"
  xmlns="http://www.w3.org/2000/svg">
  <path d="M26 2C24.9391 2 23.9217 2.42143 23.1716 3.17157C22.4214 3.92172 22 4.93913 22 6" fill="#FFBA57"/>
  <path d="M26 2C24.9391 2 23.9217 2.42143 23.1716 3.17157C22.4214 3.92172 22 4.93913 22 6" fill="#FFBA57"/>
  <path d="M22 10.9999C23.7302 9.4524 25.872 8.43988 28.166 8.08509C30.46 7.7303 32.8077 8.04847 34.9245 9.00104C37.0413 9.95361 38.8364 11.4997 40.0923 13.4519C41.3481 15.4041 42.0108 17.6787 42 19.9999C42 32.1999 33 41.9999 22 41.9999C11 41.9999 2 32.1999 2 19.9999C2 16.8173 3.26428 13.7651 5.51472 11.5147C7.76515 9.26423 10.8174 7.99994 14 7.99994C17.1826 7.99994 19.7496 8.74951 22 10.9999Z" fill="#FFBA57"/>
  <path d="M26 2C24.9391 2 23.9217 2.42143 23.1716 3.17157C22.4214 3.92172 22 4.93913 22 6M22 10.9999C23.7302 9.4524 25.872 8.43988 28.166 8.08509C30.46 7.7303 32.8077 8.04847 34.9245 9.00104C37.0413 9.95361 38.8364 11.4997 40.0923 13.4519C41.3481 15.4041 42.0108 17.6787 42 19.9999C42 32.1999 33 41.9999 22 41.9999C11 41.9999 2 32.1999 2 19.9999C2 16.8173 3.26428 13.7651 5.51472 11.5147C7.76515 9.26423 10.8174 7.99994 14 7.99994C17.1826 7.99994 19.7496 8.74951 22 10.9999Z" stroke="#FFBA57" stroke-width="3" stroke-linecap="round" stroke-linejoin="round"/>
</svg>
