<svg width="100%" height="100%" viewBox="0 0 38 44" fill="none"
  xmlns="http://www.w3.org/2000/svg">
  <path d="M7 0.211426C6.51791 0.211426 6.06521 0.443132 5.78327 0.834178C5.50133 1.22522 5.42452 1.72795 5.57683 2.18534C5.60806 2.27912 5.6424 2.38856 5.68102 2.51169C6.01517 3.57679 6.67057 5.66588 8.41357 7.49594C8.83766 7.94121 9.31794 8.36446 9.86214 8.75507C10.473 8.51478 11.1019 8.29729 11.7464 8.10375C12.5012 7.87705 13.273 7.68458 14.0571 7.52698C12.4199 6.99244 11.3328 6.21105 10.5859 5.42692C9.91895 4.72662 9.47791 3.98533 9.15923 3.28265C13.3783 3.57902 15.1278 4.74715 15.9565 5.77672C16.2933 6.19514 16.5277 6.64832 16.7085 7.1319C17.5986 7.04426 18.4978 7 19.4 7C19.8947 7 20.3884 7.0133 20.8802 7.03977C21.0364 6.48458 21.2462 5.93113 21.5199 5.42437C22.2334 4.10292 23.2936 3.21143 25 3.21143C25.8284 3.21143 26.5 2.53985 26.5 1.71143C26.5 0.882999 25.8284 0.211426 25 0.211426C21.9064 0.211426 19.9666 1.98693 18.8801 3.99898C18.807 4.13439 18.7374 4.27133 18.6711 4.40944C18.5558 4.23718 18.4303 4.06557 18.2935 3.89563C16.5014 1.66921 13.1896 0.211426 7 0.211426Z" fill="#A3D076"/>
  <path fill-rule="evenodd" clip-rule="evenodd" d="M22.8856 8.5996C21.7401 8.43692 20.5729 8.35442 19.4 8.35442C17.0189 8.35442 14.6611 8.69444 12.4613 9.35507C12.1125 9.45982 11.7687 9.5723 11.4305 9.6923C11.4485 9.70116 11.4665 9.70999 11.4846 9.71879C5.0426 12.4321 0.5 18.5297 0.5 25.7114C0.5 35.4602 8.87056 43.2114 19 43.2114C29.1294 43.2114 37.5 35.4602 37.5 25.7114C37.5 17.2432 31.184 10.2822 22.8856 8.5996ZM3.5 25.7114C3.5 17.7882 10.3534 11.2114 19 11.2114C27.6466 11.2114 34.5 17.7882 34.5 25.7114C34.5 33.6346 27.6466 40.2114 19 40.2114C10.3534 40.2114 3.5 33.6346 3.5 25.7114Z" fill="#A3D076"/>
</svg>
