<svg width="100%" height="100%" viewBox="0 0 44 44" fill="none"
  xmlns="http://www.w3.org/2000/svg">
  <path d="M26 2C24.9391 2 23.9217 2.42143 23.1716 3.17157C22.4214 3.92172 22 4.93913 22 6M22 11C23.7302 9.45246 25.872 8.43994 28.166 8.08515C30.46 7.73036 32.8077 8.04853 34.9245 9.0011C37.0413 9.95367 38.8364 11.4997 40.0923 13.452C41.3481 15.4042 42.0108 17.6787 42 20C42 32.2 33 42 22 42C11 42 2 32.2 2 20C2 16.8174 3.26428 13.7652 5.51472 11.5147C7.76515 9.26428 10.8174 8 14 8C17.1826 8 20.2348 9.26428 22.4853 11.5147" stroke="#FFBA57" stroke-width="3" stroke-linecap="round" stroke-linejoin="round"/>
</svg>
