<svg width="100%" height="100%" viewBox="0 0 36 45" fill="none"
  xmlns="http://www.w3.org/2000/svg">
  <path d="M20.4737 43.5567C20.1493 43.7418 19.8115 43.9024 19.4632 44.0371C17.7514 44.6641 15.8719 44.6584 14.164 44.0211C12.4561 43.3838 11.0323 42.1568 10.1497 40.5618L1.51126 25.3436C0.18875 23.0561 -0.244071 20.3613 0.295578 17.7747C0.835227 15.188 2.30947 12.8911 4.43634 11.3232C6.36211 9.95685 8.6942 9.28366 11.0519 9.41355L25.137 10.0096C27.0038 10.0964 28.8134 10.6812 30.3778 11.7034C31.9423 12.7256 33.2047 14.1479 34.0339 15.8226C34.8631 17.4974 35.229 19.3636 35.0935 21.2275C34.9579 23.0914 34.326 24.8851 33.2633 26.4223L22.9424 41.2998C22.2999 42.2284 21.456 42.9998 20.4737 43.5567ZM6.79482 13.3755C6.57915 13.4979 6.36766 13.6317 6.16035 13.777C4.64011 14.9128 3.59155 16.5689 3.21495 18.4288C2.83835 20.2888 3.16011 22.2223 4.11876 23.8601L12.7594 39.0822C13.284 40.0524 14.138 40.8032 15.1674 41.1993C16.1968 41.5954 17.3338 41.6106 18.3735 41.2423C19.2238 40.9153 19.9562 40.3403 20.4758 39.5919L30.7998 24.7108C31.557 23.6138 32.0068 22.3341 32.1026 21.0046C32.1985 19.675 31.9368 18.3441 31.3447 17.1498C30.7527 15.9556 29.8519 14.9414 28.7357 14.2127C27.6196 13.484 26.3288 13.0672 24.9972 13.0056L10.9088 12.4097C9.47303 12.3281 8.0443 12.6635 6.79482 13.3755ZM27.1 3.57428L21.8821 6.53618C20.4977 7.3197 18.8592 7.5222 17.3257 7.09927C15.7923 6.67634 14.4892 5.66251 13.7022 4.28013L12.9617 2.97564L15.5707 1.49469L16.3112 2.79918C16.704 3.49112 17.3555 3.9987 18.1225 4.21024C18.8896 4.42179 19.7092 4.31998 20.4011 3.9272L25.6191 0.9653L27.1 3.57428Z" fill="#FF6B6B"/>
</svg>
