<svg width="100%" height="100%" viewBox="0 0 34 43" fill="none"
  xmlns="http://www.w3.org/2000/svg">
  <path fill-rule="evenodd" clip-rule="evenodd" d="M17.3954 9.93665C17.8656 9.99665 18.3511 10.0586 18.422 9.84324C19.9549 10.1345 21.3615 10.889 22.4521 12.0048C23.5427 13.1206 24.2648 14.5441 24.521 16.0832L25.322 20.8982L26.294 21.6212C28.991 23.6192 30.5 26.3462 30.5 29.2112C30.5 34.8632 24.575 39.7112 17 39.7112C9.425 39.7112 3.5 34.8632 3.5 29.2112C3.5 26.3462 5.009 23.6192 7.706 21.6182L8.678 20.8982L9.479 16.0832C9.7242 14.609 10.3972 13.2393 11.4143 12.1443C12.3998 11.0833 13.6663 10.3256 15.0651 9.95835C15.0466 10.101 15.0783 10.2948 15.149 10.0802L15.2 9.92424C15.3033 10.1291 15.6076 10.0563 15.9192 9.98187C16.1481 9.92716 16.3809 9.87151 16.541 9.92424C16.6939 9.84715 17.0403 9.89135 17.3954 9.93665ZM15.2 9.92424C15.1225 9.77063 15.0792 9.84967 15.0651 9.95835C15.1099 9.94658 15.1549 9.93521 15.2 9.92424ZM16.541 6.72324L16.538 6.72024C14.1042 6.82543 11.7805 7.76389 9.95631 9.37838C8.13209 10.9929 6.91818 13.1853 6.518 15.5882L5.918 19.2092C2.591 21.6812 0.5 25.2452 0.5 29.2112C0.5 36.6662 7.886 42.7112 17 42.7112C26.114 42.7112 33.5 36.6662 33.5 29.2112C33.5 25.2452 31.412 21.6812 28.082 19.2092L27.482 15.5882C27.1472 13.5801 26.2426 11.7103 24.8758 10.2015C23.5089 8.69266 21.7374 7.60823 19.772 7.07724L16.541 6.72324ZM21.437 1.05624C20.072 1.86924 18.4874 3.91 17.3954 5.5H20.5C21.361 4.246 22.007 4.20924 22.97 3.63624C23.1394 3.53559 23.2873 3.40255 23.4053 3.24472C23.5233 3.0869 23.6091 2.90738 23.6577 2.71641C23.7063 2.52545 23.7168 2.32678 23.6886 2.13175C23.6605 1.93672 23.5942 1.74915 23.4935 1.57974C23.3928 1.41034 23.2598 1.26242 23.102 1.14443C22.9442 1.02644 22.7646 0.94069 22.5737 0.892079C22.3827 0.843467 22.184 0.832945 21.989 0.861112C21.794 0.88928 21.6064 0.955586 21.437 1.05624Z" fill="#8C9EFF"/>
</svg>
