<svg width="100%" height="100%" viewBox="0 0 36 62" fill="none"
  xmlns="http://www.w3.org/2000/svg">
  <path fill-rule="evenodd" clip-rule="evenodd" d="M18.1218 0.698818C17.6595 0.433726 17.0914 0.433727 16.6292 0.698822C15.1385 1.55378 13.8994 2.78633 13.0365 4.2724C12.3332 5.48374 11.9001 6.8287 11.762 8.21527C10.0273 7.50941 8.56626 7.54309 7.37352 8.06942C6.56635 8.4256 6.01723 8.95562 5.6746 9.38359C5.50211 9.59903 5.37576 9.79616 5.28904 9.94693C5.24546 10.0227 5.21122 10.0879 5.18562 10.1394C5.1728 10.1652 5.16208 10.1877 5.15339 10.2064L5.14183 10.2317L5.13715 10.2422L5.13509 10.2469L5.13412 10.2491C5.13365 10.2502 5.1332 10.2512 6.50909 10.8486L5.1332 10.2512C4.93188 10.7149 4.97762 11.2487 5.25488 11.6714C5.53214 12.0941 6.00362 12.3486 6.50909 12.3486C7.51627 12.3486 7.84111 12.4786 7.91441 12.5195C7.93113 12.5482 7.96848 12.6258 8.02031 12.8109C8.06012 12.9531 8.0986 13.1308 8.14384 13.3396C8.27294 13.9357 8.45704 14.7856 8.88374 15.7896C8.2167 16.1999 7.84339 16.8236 7.63778 17.167L7.63057 17.1791L7.55214 17.3104C7.33348 17.6769 7.21618 17.8736 7.04128 18.0479C6.90182 18.1869 6.69704 18.3342 6.26211 18.4068C5.49238 18.5353 4.94975 19.2325 5.01422 20.0102C5.07869 20.7879 5.72871 21.3863 6.50909 21.3863C7.55619 21.3863 8.39485 21.3305 9.04663 21.2871C9.14449 21.2806 9.23814 21.2743 9.32765 21.2686C9.45007 21.2608 9.56128 21.2543 9.6627 21.2492C10.9943 20.8318 12.46 20.5123 14.0044 20.3009C13.3604 19.4645 12.7044 18.8559 11.8734 18.5255C12.2627 18.4774 12.601 18.3514 12.8601 18.2307C13.2593 18.0449 13.6498 17.7824 13.9167 17.603C13.9525 17.5789 13.9862 17.5563 14.0173 17.5356C14.1053 17.477 14.1809 17.4277 14.2481 17.3856C14.8808 18.0144 15.3941 18.7542 15.7618 19.5692C15.774 19.6034 15.7874 19.6373 15.8021 19.6706C15.8582 19.7982 15.9104 19.9355 15.9661 20.0941C16.7982 20.0319 17.6455 20 18.5 20C18.6913 20 18.8822 20.0016 19.0726 20.0048C19.0237 19.8161 18.9703 19.6285 18.9125 19.4421C18.9094 19.4321 18.9062 19.4221 18.9029 19.4121C18.8878 19.3668 18.8723 19.3204 18.8562 19.2731C18.9683 19.1374 19.037 19.0095 19.0701 18.9446L19.0708 18.9432L19.213 18.7346L19.2246 18.7175C19.443 18.4678 19.6253 18.3711 19.7807 18.3193C19.9821 18.2523 20.2515 18.2238 20.6951 18.2438C20.8475 18.2506 21.0318 18.2666 21.2416 18.2849C21.7774 18.3314 22.4791 18.3924 23.2384 18.3519C22.3887 18.6453 21.729 19.2552 21.0798 20.0976C23.491 20.2814 25.7743 20.7206 27.7399 21.3797C27.9179 21.3839 28.1034 21.3863 28.2966 21.3863C29.0779 21.3863 29.7284 20.7865 29.7917 20.0078C29.8549 19.229 29.3098 18.5321 28.5388 18.406C28.2489 18.3586 28.1415 18.2626 28.0567 18.162C27.9123 17.9906 27.812 17.7724 27.5968 17.304L27.5779 17.2627C27.4093 16.8949 27.0942 16.2073 26.4841 15.728C26.4706 15.7174 26.4571 15.707 26.4435 15.6967C27.0002 14.293 27.0874 13.0062 27.1493 12.0918C27.1617 11.9097 27.173 11.7423 27.1869 11.5917C27.2418 10.9946 27.3183 10.8351 27.3349 10.8064C27.3872 10.7741 27.6191 10.6673 28.2966 10.6673C28.8738 10.6673 29.3999 10.336 29.6493 9.81544C29.8987 9.29487 29.8273 8.67735 29.4657 8.22745L28.2966 9.16725C29.4657 8.22745 29.4645 8.22605 29.4634 8.22465L29.4611 8.22179L29.4563 8.21591L29.446 8.2035C29.4389 8.19495 29.4311 8.18583 29.4227 8.17621C29.406 8.15696 29.3867 8.13562 29.3649 8.11253C29.3212 8.06639 29.267 8.0131 29.2016 7.95555C29.0706 7.84038 28.8945 7.7079 28.6687 7.58224C28.2082 7.32603 27.5771 7.11873 26.768 7.11292C25.7349 7.10551 24.493 7.42394 22.9936 8.26245C22.8607 6.8592 22.4258 5.49746 21.7144 4.27239C20.8516 2.78632 19.6124 1.55377 18.1218 0.698818ZM12.5103 12.0798C12.4682 12.0497 12.4279 12.0177 12.3896 11.9838C11.6163 11.4427 10.9769 11.1138 10.4539 10.922C10.6822 11.2875 10.8156 11.6676 10.9093 12.0023C10.9887 12.2859 11.0507 12.5632 11.1133 12.8426C11.2807 13.5904 11.4515 14.3535 11.967 15.2954C12.0496 15.2419 12.1426 15.1799 12.251 15.1076L12.3647 15.0318C12.6516 14.8408 13.1307 14.5218 13.6579 14.3615C13.945 14.2743 14.2738 14.2268 14.6152 14.2583C14.0561 13.4158 13.3448 12.6758 12.5103 12.0798ZM20.8298 15.2468C20.5707 15.2352 20.2881 15.2314 19.9909 15.2521C20.5124 14.1727 21.2654 13.2158 22.2014 12.4524C22.9793 11.8183 23.6532 11.3522 24.2309 11.011C24.2182 11.119 24.2083 11.2215 24.1995 11.3168C24.1803 11.5252 24.1647 11.7309 24.1492 11.9348C24.062 13.0841 23.9793 14.1741 23.289 15.347C22.8059 15.3966 22.3516 15.359 21.8054 15.3138C21.5128 15.2896 21.1938 15.2632 20.8298 15.2468ZM23.0371 9.16406L23.0371 9.16103L21.5671 9.16704C21.163 9.45186 20.7427 9.77106 20.3056 10.1273L21.5671 9.16704L23.0371 9.16406ZM24.6697 18.1552L24.6338 18.1545C24.6458 18.1529 24.6568 18.1515 24.6669 18.1504L24.6697 18.1552ZM24.7591 18.148C24.7588 18.1483 24.7544 18.1481 24.7466 18.1464C24.7555 18.1469 24.7594 18.1477 24.7591 18.148ZM19.9093 10.4661C18.9757 11.3025 18.1916 12.2866 17.5862 13.3755C16.8759 12.0932 15.9209 10.955 14.7689 10.029C14.7337 9.74264 14.7153 9.45437 14.714 9.16562C14.7172 7.97582 15.0335 6.80778 15.6309 5.7788C16.0785 5.00796 16.6721 4.33551 17.3755 3.79747C18.0789 4.33551 18.6725 5.00796 19.1201 5.7788C19.7183 6.80912 20.0346 7.97887 20.0371 9.17028L20.0371 9.1733C20.0389 9.60785 19.996 10.0411 19.9093 10.4661ZM27.3225 10.8155C27.3222 10.8154 27.3245 10.8132 27.33 10.8096C27.3254 10.8138 27.3227 10.8157 27.3225 10.8155Z" fill="#C890F4"/>
  <path fill-rule="evenodd" clip-rule="evenodd" d="M30.4225 26.4646C30.4718 26.6371 30.4973 26.8154 30.4973 27H30.8576C33.7591 30.7004 35.5 35.6384 35.5 40.9884C35.5 52.1074 27.8996 61.5937 18.0052 61.5937C8.10094 61.5937 0.5 52.1082 0.5 40.9884C0.5 35.6388 2.23959 30.7013 5.14296 27H5.19995C5.19995 26.9749 5.20074 26.9498 5.20229 26.9247C5.94758 25.9841 6.76847 25.1243 7.65538 24.3592C8.39838 23.9266 9.227 23.5254 10.0166 23.1688C12.2665 22.1527 15.3181 21.5818 18.5 21.5818C21.6819 21.5818 24.45 22.4839 26.7 23.5C27.2671 23.7561 27.7895 24.0142 28.2539 24.28C29.0283 24.9392 29.7533 25.6704 30.4225 26.4646ZM20.9931 23.7662C21.4399 23.8816 21.8806 24.02 22.3132 24.1809C28.086 26.3605 32.5 32.9504 32.5 40.9884C32.5 50.9713 25.7661 58.5937 18.0052 58.5937C10.2333 58.5937 3.5 50.9707 3.5 40.9884C3.5 32.9191 7.94479 26.3106 13.7664 24.151L13.7714 24.1492C13.8938 24.1032 14.0221 24.0628 14.1965 24.0083C14.209 24.0044 14.2214 24.0003 14.2338 23.9961C14.5642 23.8832 14.9001 23.7873 15.2402 23.7086C15.2699 23.7035 15.2994 23.6976 15.3288 23.6908C16.1744 23.4942 17.039 23.3909 17.907 23.3829H18.0052C18.1796 23.3829 18.2914 23.3834 18.4056 23.3905C18.4175 23.3913 18.4295 23.3919 18.4415 23.3923C19.2236 23.4224 20.0012 23.5268 20.7635 23.7039C20.7994 23.7138 20.8337 23.723 20.8605 23.7301L20.8659 23.7316C20.9078 23.7428 20.934 23.7498 20.9557 23.756C20.9681 23.7595 20.9806 23.7629 20.9931 23.7662Z" fill="#C890F4"/>
</svg>
