<svg width="100%" height="100%" viewBox="0 0 92 41" fill="black"
  xmlns="http://www.w3.org/2000/svg">
  <path d="M35.7604 4.70738V0.18213C34.7571 0.181652 33.7669 0.33878 32.8654 0.641514C31.9639 0.944249 31.175 1.38458 30.5589 1.92888L35.7604 4.70738ZM56.2372 4.70738L61.4386 1.92888C60.8226 1.38458 60.0337 0.944249 59.1322 0.641514C58.2307 0.33878 57.2405 0.181652 56.2372 0.18213V4.70738ZM56.2372 4.70738L40.9553 7.48589L30.5589 1.92888L2.97134 26.3019L56.2372 4.70738ZM56.2372 4.70738L2.97134 26.3019C-3.73792 32.2481 2.41168 40.9094 13.3809 40.9094L56.2372 4.70738ZM78.6233 31.8589L56.2372 4.70738L13.3809 40.9094H78.6233V31.8589ZM78.6233 31.8589V40.9094C89.5859 40.9094 95.7421 32.2481 89.0262 26.3019L78.6233 31.8589ZM51.0423 7.48589L78.6233 31.8589L89.0262 26.3019L61.4386 1.92888L51.0423 7.48589ZM56.2372 0.18213H35.7604L35.7538 9.23263H56.2437L56.2372 0.18213Z" />
</svg>
