<svg width="100%" height="100%" viewBox="0 0 111 50" fill="black"
  xmlns="http://www.w3.org/2000/svg">
  <path d="M43.4846 5.65657V1.36159e-06C42.2583 -0.000596675 41.048 0.195814 39.9462 0.574232C38.8444 0.95265 37.8802 1.50306 37.1272 2.18343L43.4846 5.65657ZM68.5117 5.65657L74.8691 2.18343C74.1161 1.50306 73.1519 0.95265 72.0501 0.574232C70.9483 0.195814 69.738 -0.000596675 68.5117 1.36159e-06V5.65657ZM68.5197 11.3131L49.8339 9.1297L37.1272 2.18343L3.40903 32.6497L68.5197 11.3131ZM68.5197 11.3131L3.40903 32.6497C-4.79117 40.0824 2.72501 50.9091 16.1318 50.9091L68.5197 11.3131ZM95.8725 39.596L68.5197 11.3131L16.1318 50.9091H95.8725V39.596ZM95.8725 39.596V50.9091C109.271 50.9091 116.796 40.0824 108.587 32.6497L95.8725 39.596ZM62.1624 9.1297L95.8725 39.596L108.587 32.6497L74.8691 2.18343L62.1624 9.1297ZM68.5117 1.36159e-06H43.4846L43.4765 11.3131H68.5197L68.5117 1.36159e-06Z" />
</svg>
