<svg width="100%" height="100%" viewBox="0 0 72 32" fill="black"
  xmlns="http://www.w3.org/2000/svg">
  <path d="M28.0353 3.93886V0.544923C27.2549 0.544564 26.4847 0.66241 25.7836 0.889461C25.0824 1.11651 24.4688 1.44676 23.9897 1.85498L28.0353 3.93886ZM43.9616 3.93886L48.0072 1.85498C47.5281 1.44676 46.9145 1.11651 46.2133 0.889461C45.5122 0.66241 44.742 0.544564 43.9616 0.544923V3.93886ZM43.9616 3.93886L32.0758 6.02274L23.9897 1.85498L2.53267 20.1347L43.9616 3.93886ZM43.9616 3.93886L2.53267 20.1347C-2.68564 24.5944 2.09738 31.0904 10.629 31.0904L43.9616 3.93886ZM61.3731 24.3025L43.9616 3.93886L10.629 31.0904H61.3731V24.3025ZM61.3731 24.3025V31.0904C69.8995 31.0904 74.6877 24.5944 69.4643 20.1347L61.3731 24.3025ZM41.0906 5.63583L61.3731 24.3025L69.4643 20.1347L48.0072 1.85498L41.0906 5.63583ZM43.9616 0.544923H28.0353L28.0302 7.3328H43.9668L43.9616 0.544923Z" />
</svg>
