<svg width="32" height="54" viewBox="0 0 32 54" ffill="black"
  xmlns="http://www.w3.org/2000/svg">
  <path d="M32 39.2727C32 44.2935 25.7202 46.5455 16 46.5455C6.27979 46.5455 0 44.2935 0 39.2727C0 34.252 6.27979 32 16 32C25.7202 32 32 34.252 32 39.2727Z" />
  <path d="M29.091 24.7274C29.091 28.744 23.953 30.5455 16.0001 30.5455C8.04719 30.5455 2.90918 28.744 2.90918 24.7274C2.90918 20.7107 8.04719 18.9092 16.0001 18.9092C23.953 18.9092 29.091 20.7107 29.091 24.7274Z" />
  <path d="M26.1818 13.0907C26.1818 16.1031 22.1855 17.4543 15.9999 17.4543C9.81434 17.4543 5.81812 16.1031 5.81812 13.0907C5.81812 10.0782 9.81434 8.72705 15.9999 8.72705C22.1855 8.72705 26.1818 10.0782 26.1818 13.0907Z" />
  <path d="M21.8182 2.90909C21.8182 4.9174 19.5347 5.81818 16.0001 5.81818C12.4654 5.81818 10.1819 4.9174 10.1819 2.90909C10.1819 0.900783 12.4654 0 16.0001 0C19.5347 0 21.8182 0.900783 21.8182 2.90909Z" />
</svg>
