<svg width="32" height="54" viewBox="0 0 32 54" fill="black"
  xmlns="http://www.w3.org/2000/svg">
  <path d="M32 39.2727C32 39.2727 25.7202 46.5455 16 46.5455C6.27979 46.5455 0 39.2727 0 39.2727L16 32L32 39.2727Z" />
  <path d="M29.091 24.7274C29.091 24.7274 23.953 30.5455 16.0001 30.5455C8.04719 30.5455 2.90918 24.7274 2.90918 24.7274L16.0001 18.9092L29.091 24.7274Z" />
  <path d="M26.1818 13.0907C26.1818 13.0907 22.1855 17.4543 15.9999 17.4543C9.81434 17.4543 5.81812 13.0907 5.81812 13.0907L15.9999 8.72705L26.1818 13.0907Z" />
  <path d="M21.8182 2.90909C21.8182 2.90909 19.5347 5.81818 16.0001 5.81818C12.4654 5.81818 10.1819 2.90909 10.1819 2.90909L16.0001 0L21.8182 2.90909Z" />
</svg>
