<svg width="32" height="54" viewBox="0 0 32 54" fill="black"
  xmlns="http://www.w3.org/2000/svg">
  <path d="M0 33C0 32.4477 0.447715 32 1 32H31C31.5523 32 32 32.4477 32 33V45.5455C32 46.0977 31.5523 46.5455 31 46.5455H1C0.447715 46.5455 0 46.0977 0 45.5455V33Z" />
  <path d="M2.90918 18.2046C2.90918 17.7904 3.24497 17.4546 3.65918 17.4546H28.341C28.7552 17.4546 29.091 17.7904 29.091 18.2046V28.341C29.091 28.7552 28.7552 29.091 28.341 29.091H3.65918C3.24497 29.091 2.90918 28.7552 2.90918 28.341V18.2046Z" />
  <path d="M5.81812 8.02295C5.81812 7.60874 6.1539 7.27295 6.56812 7.27295H25.4318C25.846 7.27295 26.1818 7.60874 26.1818 8.02295V15.2502C26.1818 15.6644 25.846 16.0002 25.4318 16.0002H6.56812C6.1539 16.0002 5.81812 15.6644 5.81812 15.2502V8.02295Z" />
  <path d="M10.1819 0.2C10.1819 0.0895431 10.2714 0 10.3819 0H21.6182C21.7287 0 21.8182 0.089543 21.8182 0.2V5.61818C21.8182 5.72864 21.7287 5.81818 21.6182 5.81818H10.3819C10.2714 5.81818 10.1819 5.72864 10.1819 5.61818V0.2Z" />
</svg>
