<svg width="32" height="54" viewBox="0 0 32 54" fill="black"
  xmlns="http://www.w3.org/2000/svg">
  <path d="M13.7244 9.69675V8.72705C13.5014 8.72695 13.2814 8.76062 13.0811 8.82549C12.8807 8.89036 12.7054 8.98472 12.5685 9.10135L13.7244 9.69675ZM18.2748 9.69675L19.4307 9.10135C19.2938 8.98472 19.1185 8.89036 18.9181 8.82549C18.7178 8.76062 18.4978 8.72695 18.2748 8.72705V9.69675ZM18.2748 9.69675L14.8788 10.2921L12.5685 9.10135L6.43794 14.3241L18.2748 9.69675ZM18.2748 9.69675L6.43794 14.3241C4.94699 15.5983 6.31357 17.4543 8.75117 17.4543L18.2748 9.69675ZM23.2495 15.5149L18.2748 9.69675L8.75117 17.4543H23.2495V15.5149ZM23.2495 15.5149V17.4543C25.6856 17.4543 27.0537 15.5983 25.5613 14.3241L23.2495 15.5149ZM17.4545 10.1816L23.2495 15.5149L25.5613 14.3241L19.4307 9.10135L17.4545 10.1816ZM18.2748 8.72705H13.7244L13.7229 10.6664H18.2763L18.2748 8.72705Z" />
  <path d="M13.0744 20.2021V18.9092C12.7877 18.909 12.5048 18.9539 12.2473 19.0404C11.9897 19.1269 11.7643 19.2527 11.5883 19.4083L13.0744 20.2021ZM18.9249 20.2021L20.411 19.4083C20.235 19.2527 20.0096 19.1269 19.7521 19.0404C19.4945 18.9539 19.2116 18.909 18.9249 18.9092V20.2021ZM18.9249 20.2021L14.5587 20.996L11.5883 19.4083L3.7061 26.372L18.9249 20.2021ZM18.9249 20.2021L3.7061 26.372C1.78917 28.0709 3.5462 30.5455 6.68025 30.5455L18.9249 20.2021ZM25.3209 27.9597L18.9249 20.2021L6.68025 30.5455H25.3209V27.9597ZM25.3209 27.9597V30.5455C28.4531 30.5455 30.212 28.0709 28.2932 26.372L25.3209 27.9597ZM17.4406 20.996L25.3209 27.9597L28.2932 26.372L20.411 19.4083L17.4406 20.996ZM18.9249 18.9092H13.0744L13.0725 21.495H18.9268L18.9249 18.9092Z" />
  <path d="M12.4242 33.6162V32C12.0738 31.9998 11.728 32.0559 11.4132 32.1641C11.0984 32.2722 10.8229 32.4294 10.6078 32.6238L12.4242 33.6162ZM19.5748 33.6162L21.3912 32.6238C21.176 32.4294 20.9005 32.2722 20.5857 32.1641C20.2709 32.0559 19.9251 31.9998 19.5748 32V33.6162ZM19.5771 35.2323L14.2383 34.6085L10.6078 32.6238L0.97401 41.3285L19.5771 35.2323ZM19.5771 35.2323L0.97401 41.3285C-1.3689 43.4521 0.778574 46.5455 4.60909 46.5455L19.5771 35.2323ZM27.3922 43.3131L19.5771 35.2323L4.60909 46.5455H27.3922V43.3131ZM27.3922 43.3131V46.5455C31.2204 46.5455 33.3701 43.4521 31.0249 41.3285L27.3922 43.3131ZM17.7607 34.6085L27.3922 43.3131L31.0249 41.3285L21.3912 32.6238L17.7607 34.6085ZM19.5748 32H12.4242L12.4219 35.2323H19.5771L19.5748 32Z" />
  <path d="M9.19453 4.16291L15.9999 0L22.8052 4.16291C23.8039 4.77382 23.0969 5.81818 21.6844 5.81818H10.3153C8.90444 5.81818 8.19585 4.77382 9.19453 4.16291Z" />
</svg>
