<svg width="32" height="32" viewBox="0 0 32 32" fill="none"
  xmlns="http://www.w3.org/2000/svg">
  <path d="M21.1466 18.2601C20.5474 19.0591 19.7703 19.7076 18.877 20.1542C17.9837 20.6009 16.9987 20.8334 15.9999 20.8334C15.0012 20.8334 14.0162 20.6009 13.1229 20.1542C12.2296 19.7076 11.4525 19.0591 10.8533 18.2601C10.3341 17.5679 9.35213 17.4276 8.65993 17.9467C7.96774 18.4659 7.82745 19.4479 8.3466 20.1401C12.1733 25.243 19.8266 25.243 23.6533 20.1401C24.1724 19.4479 24.0321 18.4659 23.3399 17.9467C22.6477 17.4276 21.6657 17.5679 21.1466 18.2601ZM22.3999 10.1667C21.5347 10.1667 20.8333 10.8682 20.8333 11.7334C20.8333 12.5987 21.5347 13.3001 22.3999 13.3001C23.2652 13.3001 23.9666 12.5987 23.9666 11.7334C23.9666 10.8682 23.2652 10.1667 22.3999 10.1667ZM9.59993 10.1667C8.73469 10.1667 8.03327 10.8682 8.03327 11.7334C8.03327 12.5987 8.73469 13.3001 9.59993 13.3001C10.4652 13.3001 11.1666 12.5987 11.1666 11.7334C11.1666 10.8682 10.4652 10.1667 9.59993 10.1667Z" stroke="#1F2E21" stroke-opacity="0.8"/>
</svg>
