<svg width="36" height="84" viewBox="0 0 36 84" fill="none" xmlns="http://www.w3.org/2000/svg">
<path d="M30 0V2C30 11.627 24.627 16 18 16H17C17.212 12.988 17.248 11.165 19.696 8.999C20.9 7.934 20.798 7.319 20.205 7.672C16.121 10.102 13.59 10.756 13.5 16H12.345V15.268C12.1157 13.974 12.0007 12.218 12 10C12 4.477 16.477 0 22 0C24 0 26 1 30 0Z" fill="#FF6B6B"/>
<path d="M7.53324 44.9179C12.117 53.0924 23.883 53.0924 28.4668 44.9179L32.98 36.8691C37.4654 28.8701 31.6841 19 22.5133 19H13.4867C4.31592 19 -1.46543 28.8701 3.01997 36.8691L7.53324 44.9179Z" fill="#FF6B6B"/>
<path d="M23.1215 37.6383C23.5782 37.7445 23.9044 37.9625 24.0852 38.3727C24.266 38.783 24.2066 39.1709 23.9768 39.5795C23.747 39.9882 23.3451 40.3379 22.8597 40.5518L21.0295 41.3581C20.5441 41.572 20.0148 41.6325 19.5582 41.5263C19.1015 41.4201 18.7549 41.1559 18.5945 40.7918C18.4341 40.4278 18.4731 39.9937 18.7029 39.585C18.9327 39.1764 19.3345 38.8266 19.82 38.6128L21.6502 37.8064C22.1356 37.5926 22.6649 37.5321 23.1215 37.6383Z" fill="#FFF7EC"/>
<path d="M7.49222 39.8611C7.40248 39.4771 7.44364 39.116 7.68099 38.7392C7.91834 38.3623 8.22765 38.167 8.61522 38.0781C9.00279 37.9892 9.41014 38.0564 9.74764 38.2651L11.0202 39.0518C11.3577 39.2605 11.5977 39.5934 11.6875 39.9774C11.7772 40.3614 11.7093 40.765 11.4987 41.0994C11.2881 41.4338 10.952 41.6716 10.5645 41.7605C10.1769 41.8494 9.76955 41.7821 9.43204 41.5734L8.15947 40.7867C7.82197 40.578 7.58195 40.2451 7.49222 39.8611Z" fill="#FFF7EC"/>
<path fill-rule="evenodd" clip-rule="evenodd" d="M25.2668 73.6319V80.6399C25.2668 81.4355 25.47 82.1986 25.8316 82.7612C26.1933 83.3238 26.6839 83.6399 27.1953 83.6399C27.7068 83.6399 28.1974 83.3238 28.5591 82.7612C28.9207 82.1986 29.1239 81.4355 29.1239 80.6399V58.4319C29.8862 58.4825 30.6063 58.9893 31.1339 59.8466C31.6616 60.7038 31.9558 61.8451 31.9551 63.0319V66.6319C31.9551 67.4275 32.1582 68.1906 32.5199 68.7532C32.8816 69.3158 33.3721 69.6319 33.8836 69.6319C34.3951 69.6319 34.8857 69.3158 35.2473 68.7532C35.609 68.1906 35.8122 67.4275 35.8122 66.6319V63.0319C35.8122 61.6399 35.6359 60.2615 35.2935 58.9754C34.951 57.6894 34.4491 56.5209 33.8163 55.5366C33.1836 54.5523 32.4324 53.7715 31.6056 53.2388C30.7789 52.7061 29.8928 52.4319 28.9979 52.4319H7.00192C6.10683 52.4314 5.22046 52.7051 4.39341 53.2376C3.56637 53.7701 2.81486 54.5508 2.18183 55.5351C1.54879 56.5195 1.04662 57.6882 0.704011 58.9745C0.3614 60.2608 0.185059 61.6395 0.185059 63.0319V66.6319C0.185059 67.4275 0.388247 68.1906 0.749924 68.7532C1.1116 69.3158 1.60214 69.6319 2.11363 69.6319C2.62512 69.6319 3.11566 69.3158 3.47734 68.7532C3.83901 68.1906 4.0422 67.4275 4.0422 66.6319V63.0319C4.04148 61.8458 4.33533 60.7051 4.86239 59.8479C5.38945 58.9908 6.10899 58.4835 6.87077 58.4319V80.6399C6.87077 81.4355 7.07396 82.1986 7.43564 82.7612C7.79732 83.3238 8.28786 83.6399 8.79934 83.6399C9.31083 83.6399 9.80137 83.3238 10.163 82.7612C10.5247 82.1986 10.7279 81.4355 10.7279 80.6399V73.6319H25.2668Z" fill="#FF6B6B"/>
</svg>
