<svg width="38" height="29" viewBox="0 0 38 29" fill="none" xmlns="http://www.w3.org/2000/svg">
<path fill-rule="evenodd" clip-rule="evenodd" d="M38 6.00001V2.00001H32C28.287 2.00001 24.726 3.475 22.1005 6.10051C19.475 8.72602 18 12.287 18 16V23L18.0039 23V27H22.0039L22 23H18L18.0039 20L24 20C27.713 20 31.274 18.525 33.8995 15.8995C36.525 13.274 38 9.71304 38 6.00001ZM13.8967 1.67575C11.7652 0.572773 9.39995 -0.0019397 7 4.91851e-06H0V3.00001C0 6.97825 1.58035 10.7936 4.3934 13.6066C7.20644 16.4197 11.0218 18 15 18H16V16C15.9945 12.5104 17.1357 9.11565 19.248 6.33801C17.8635 4.37769 16.0282 2.77873 13.8967 1.67575Z" fill="#A3D076"/>
<path d="M8 29C8 29 11.84 22.4 16.4 21.4L18.8 21H21.2L23.6 21.4C28.16 22.4 32 29 32 29H8Z" fill="#5B3633"/>
</svg>
