<svg width="36" height="82" viewBox="0 0 36 82" fill="none" xmlns="http://www.w3.org/2000/svg">
<path fill-rule="evenodd" clip-rule="evenodd" d="M25.2668 71.6319V78.6399C25.2668 79.4355 25.47 80.1986 25.8316 80.7612C26.1933 81.3238 26.6839 81.6399 27.1953 81.6399C27.7068 81.6399 28.1974 81.3238 28.5591 80.7612C28.9207 80.1986 29.1239 79.4355 29.1239 78.6399V56.4319C29.8862 56.4825 30.6063 56.9893 31.1339 57.8466C31.6616 58.7038 31.9558 59.8451 31.9551 61.0319V64.6319C31.9551 65.4275 32.1582 66.1906 32.5199 66.7532C32.8816 67.3158 33.3721 67.6319 33.8836 67.6319C34.3951 67.6319 34.8857 67.3158 35.2473 66.7532C35.609 66.1906 35.8122 65.4275 35.8122 64.6319V61.0319C35.8122 59.6399 35.6359 58.2615 35.2935 56.9754C34.951 55.6894 34.4491 54.5209 33.8163 53.5366C33.1836 52.5523 32.4324 51.7715 31.6056 51.2388C30.7789 50.7061 29.8928 50.4319 28.9979 50.4319H7.00192C6.10683 50.4314 5.22046 50.7051 4.39341 51.2376C3.56637 51.7701 2.81486 52.5508 2.18183 53.5351C1.54879 54.5195 1.04662 55.6882 0.704011 56.9745C0.3614 58.2608 0.185059 59.6395 0.185059 61.0319V64.6319C0.185059 65.4275 0.388247 66.1906 0.749924 66.7532C1.1116 67.3158 1.60214 67.6319 2.11363 67.6319C2.62512 67.6319 3.11566 67.3158 3.47734 66.7532C3.83901 66.1906 4.0422 65.4275 4.0422 64.6319V61.0319C4.04148 59.8458 4.33533 58.7051 4.86239 57.8479C5.38945 56.9908 6.10899 56.4835 6.87077 56.4319V78.6399C6.87077 79.4355 7.07396 80.1986 7.43564 80.7612C7.79732 81.3238 8.28786 81.6399 8.79934 81.6399C9.31083 81.6399 9.80137 81.3238 10.163 80.7612C10.5247 80.1986 10.7279 79.4355 10.7279 78.6399V71.6319H25.2668Z" fill="#A3D076"/>
<path d="M32.9999 0V2C32.9999 11.627 27.6269 16 20.9999 16H19.9999C20.2119 12.988 20.2479 11.165 22.6959 8.999C23.8999 7.934 23.7979 7.319 23.2049 7.672C19.1209 10.102 16.5899 10.756 16.4999 16H15.3449V15.268C15.1155 13.974 15.0005 12.218 14.9999 10C14.9999 4.477 19.4769 0 24.9999 0C26.9999 0 28.9999 1 32.9999 0Z" fill="#A3D076"/>
<path d="M33.9999 33C33.9999 41.8366 26.8364 49 17.9999 49C9.16332 49 1.99988 41.8366 1.99988 33C1.99988 24.1634 9.16332 17 17.9999 17C26.8364 17 33.9999 24.1634 33.9999 33Z" fill="#A3D076"/>
<path d="M13.4392 41.4393C13.7205 41.158 14.0515 41 14.4999 41C14.9482 41 15.2792 41.158 15.5605 41.4393C15.8418 41.7206 15.9999 42.1022 15.9999 42.5V44C15.9999 44.3978 15.8418 44.7794 15.5605 45.0607C15.2792 45.342 14.8977 45.5 14.4999 45.5C14.1021 45.5 13.7205 45.342 13.4392 45.0607C13.1579 44.7794 12.9999 44.3978 12.9999 44V42.5C12.9999 42.1022 13.1579 41.7206 13.4392 41.4393Z" fill="#FFF7EC"/>
<path d="M22.4629 35.4393C22.8067 35.7206 22.9999 36.0517 22.9999 36.5C22.9999 36.9483 22.8067 37.2794 22.4629 37.5607C22.1191 37.842 21.6528 38 21.1665 38H19.3332C18.847 38 18.3807 37.842 18.0368 37.5607C17.693 37.2794 17.4999 36.8978 17.4999 36.5C17.4999 36.1022 17.693 35.7206 18.0368 35.4393C18.3807 35.158 18.847 35 19.3332 35H21.1665C21.6528 35 22.1191 35.158 22.4629 35.4393Z" fill="#FFF7EC"/>
<path d="M8.3904 37.5607C8.14035 37.2794 7.99988 36.9483 7.99988 36.5C7.99988 36.0517 8.14035 35.7206 8.3904 35.4393C8.64045 35.158 8.97959 35 9.33321 35H10.6665C11.0202 35 11.3593 35.158 11.6094 35.4393C11.8594 35.7206 11.9999 36.1022 11.9999 36.5C11.9999 36.8978 11.8594 37.2794 11.6094 37.5607C11.3593 37.842 11.0202 38 10.6665 38H9.33321C8.97959 38 8.64045 37.842 8.3904 37.5607Z" fill="#FFF7EC"/>
</svg>
