<svg width="36" height="84" viewBox="0 0 36 84" fill="none" xmlns="http://www.w3.org/2000/svg">
<path d="M29.8148 0V2C29.8148 11.627 24.4418 16 17.8148 16H16.8148C17.0268 12.988 17.0628 11.165 19.5108 8.999C20.7148 7.934 20.6128 7.319 20.0198 7.672C15.9358 10.102 13.4048 10.756 13.3148 16H12.1598V15.268C11.9305 13.974 11.8155 12.218 11.8148 10C11.8148 4.477 16.2918 0 21.8148 0C23.8148 0 25.8148 1 29.8148 0Z" fill="#C890F4"/>
<path d="M25.3459 19.4787C24.6109 19.1341 23.7979 19 22.9862 19H12.6431C11.8314 19 11.0184 19.1341 10.2835 19.4787C6.26835 21.3613 4.00508 22.4835 2.2835 26.1766C1.93506 26.924 1.8147 27.7537 1.8147 28.5783V39.154C1.8147 39.9783 1.94539 40.8039 2.2835 41.5557C4.12735 45.6552 6.26835 47.8412 10.2835 49.7239C10.718 49.9276 10.9904 50.2024 11.4147 50.2025C11.7565 50.2026 19.8541 50.2025 22.99 50.2025C23.8017 50.2025 24.6109 50.0684 25.3459 49.7239C29.361 47.8412 31.502 45.6552 33.3459 41.5557C33.5454 41.112 33.8146 40.8339 33.8147 40.4007C33.8147 39.9893 33.8147 28.5738 33.8147 27.4246C33.8147 27.3572 33.8163 27.2977 33.8098 27.2306C33.773 26.8525 33.5351 26.5826 33.3459 26.1766C31.6243 22.4835 29.361 21.3613 25.3459 19.4787Z" fill="#C890F4"/>
<path d="M25.414 34.7322C25.789 35.2011 25.9998 35.7528 25.9998 36.5C25.9998 37.2472 25.789 37.7989 25.414 38.2678C25.0389 38.7366 24.5302 39 23.9998 39H21.9998C21.4693 39 20.5855 38.2678 20.5855 38.2678C20.5855 38.2678 19.9998 37.163 19.9998 36.5C19.9998 35.837 20.2105 35.2011 20.5855 34.7322C20.9606 34.2634 21.4693 34 21.9998 34H23.9998C24.5302 34 25.0389 34.2634 25.414 34.7322Z" fill="#FFF7EC"/>
<path d="M8.39028 38.2678C8.14023 37.7989 7.99976 37.2472 7.99976 36.5C7.99976 35.7528 8.14023 35.2011 8.39028 34.7322C8.64033 34.2634 8.97947 34 9.33309 34H10.6664C11.02 34 11.3592 34.2634 11.6092 34.7322C11.8593 35.2011 11.9998 35.837 11.9998 36.5C11.9998 37.163 11.8593 37.7989 11.6092 38.2678C11.3592 38.7366 11.02 39 10.6664 39H9.33309C8.97947 39 8.64033 38.7366 8.39028 38.2678Z" fill="#FFF7EC"/>
<path d="M10.7979 44.9646C10.6573 44.9301 10.526 44.8713 10.4118 44.7917C10.2976 44.712 10.2028 44.6131 10.1329 44.5008C10.0631 44.3885 10.0197 44.2651 10.0052 44.1378C9.99079 44.0106 10.0056 43.8821 10.0488 43.7599C10.092 43.6378 10.1627 43.5244 10.2568 43.4266C10.9324 42.6814 12.0252 42.9195 12.9999 42.5L13.0476 42.4796C14.2989 41.9617 14.8957 42.9993 15.9999 43C17.104 42.9993 18.0054 42.0799 18.9999 42.5001C19.9944 42.9203 21.0563 42.6692 21.743 43.4266C21.837 43.5244 21.9077 43.6378 21.9509 43.7599C21.9941 43.8821 22.009 44.0106 21.9945 44.1378C21.9801 44.2651 21.9366 44.3885 21.8668 44.5008C21.797 44.6131 21.7022 44.712 21.5879 44.7917C21.4737 44.8713 21.3424 44.9301 21.2019 44.9646C21.0613 44.9991 20.9142 45.0085 20.7694 44.9923C20.6246 44.9762 20.4849 44.9347 20.3587 44.8705C20.2324 44.8062 20.1222 44.7205 20.0345 44.6183C19.5522 44.0862 19.2904 44.4328 18.5917 44.1378C17.893 43.8429 16.7755 44.914 15.9999 44.915C15.36 44.9143 14.2099 44.0914 13.4345 43.9688L12.1001 44.4728C12.0611 44.5143 12.0168 44.5627 11.9653 44.6195L12.0227 44.5021L10.7979 44.9646Z" fill="#FFF7EC"/>
<path fill-rule="evenodd" clip-rule="evenodd" d="M25.0817 73.6319V80.6399C25.0817 81.4355 25.2849 82.1986 25.6466 82.7612C26.0083 83.3238 26.4988 83.6399 27.0103 83.6399C27.5218 83.6399 28.0123 83.3238 28.374 82.7612C28.7357 82.1986 28.9389 81.4355 28.9389 80.6399V58.4319C29.7011 58.4825 30.4213 58.9893 30.9489 59.8466C31.4765 60.7038 31.7707 61.8451 31.77 63.0319V66.6319C31.77 67.4275 31.9732 68.1906 32.3349 68.7532C32.6965 69.3158 33.1871 69.6319 33.6986 69.6319C34.2101 69.6319 34.7006 69.3158 35.0623 68.7532C35.424 68.1906 35.6271 67.4275 35.6271 66.6319V63.0319C35.6271 61.6399 35.4509 60.2615 35.1084 58.9754C34.766 57.6894 34.2641 56.5209 33.6313 55.5366C32.9985 54.5523 32.2473 53.7715 31.4206 53.2388C30.5938 52.7061 29.7077 52.4319 28.8129 52.4319H6.81686C5.92178 52.4314 5.0354 52.7051 4.20835 53.2376C3.38131 53.7701 2.6298 54.5508 1.99677 55.5351C1.36373 56.5195 0.861563 57.6882 0.518952 58.9745C0.176342 60.2608 -6.37295e-08 61.6395 0 63.0319V66.6319C0 67.4275 0.203188 68.1906 0.564865 68.7532C0.926543 69.3158 1.41708 69.6319 1.92857 69.6319C2.44006 69.6319 2.9306 69.3158 3.29228 68.7532C3.65395 68.1906 3.85714 67.4275 3.85714 66.6319V63.0319C3.85642 61.8458 4.15027 60.7051 4.67733 59.8479C5.20439 58.9908 5.92393 58.4835 6.68571 58.4319V80.6399C6.68571 81.4355 6.8889 82.1986 7.25058 82.7612C7.61226 83.3238 8.1028 83.6399 8.61429 83.6399C9.12577 83.6399 9.61631 83.3238 9.97799 82.7612C10.3397 82.1986 10.5429 81.4355 10.5429 80.6399V73.6319H25.0817Z" fill="#C890F4"/>
</svg>
