<svg width="38" height="87" viewBox="0 0 38 87" fill="none" xmlns="http://www.w3.org/2000/svg">
<path d="M30 2V4C30 13.627 24.627 18 18 18H17C17.212 14.988 17.248 13.165 19.696 10.999C20.9 9.934 20.798 9.319 20.205 9.672C16.121 12.102 13.59 12.756 13.5 18H12.345V17.268C12.1157 15.974 12.0007 14.218 12 12C12 6.477 16.477 2 22 2C24 2 26 3 30 2Z" fill="#FFBA57"/>
<path d="M36 29.1067C36 32.2444 35.5603 35.3514 34.706 38.2502C33.8516 41.1491 32.5994 43.7831 31.0208 46.0018C29.4422 48.2205 27.5682 49.9805 25.5056 51.1812C23.4431 52.382 21.2325 53 19 53C16.7675 53 14.5569 52.382 12.4944 51.1812C10.4318 49.9805 8.55778 48.2205 6.97918 46.0018C5.40059 43.7831 4.14838 41.1491 3.29405 38.2502C2.43972 35.3514 2 32.2444 2 29.1067C2 25.9689 12.3611 21 19 21C25.6389 21 36 25.9689 36 29.1067Z" fill="#FFBA57"/>
<path fill-rule="evenodd" clip-rule="evenodd" d="M21 45.002C19.535 45.848 17.812 46.329 16 46.329C14.2456 46.3323 12.5212 45.8739 11 45C11.228 47.787 13.393 49.973 16 49.973C18.607 49.973 20.772 47.79 21 45.002Z" fill="white"/>
<path d="M23.6095 37.8787C23.8595 38.4413 24 39.1033 24 40C24 40.8967 23.8595 41.5587 23.6095 42.1213C23.3594 42.6839 23.0203 43 22.6667 43H21.3333C20.9797 43 20.6406 42.6839 20.3905 42.1213C20.1405 41.5587 20 40.7956 20 40C20 39.2044 20.1405 38.4413 20.3905 37.8787C20.6406 37.3161 20.9797 37 21.3333 37H22.6667C23.0203 37 23.3594 37.3161 23.6095 37.8787Z" fill="#FFF7EC"/>
<path d="M11.7071 37.8787C11.8946 38.4413 12 39.1033 12 40C12 40.8967 11.8946 41.5587 11.7071 42.1213C11.5196 42.6839 11.2652 43 11 43H10C9.73478 43 9.48043 42.6839 9.29289 42.1213C9.10536 41.5587 9 40.7956 9 40C9 39.2044 9.10536 38.4413 9.29289 37.8787C9.48043 37.3161 9.73478 37 10 37H11C11.2652 37 11.5196 37.3161 11.7071 37.8787Z" fill="#FFF7EC"/>
<path fill-rule="evenodd" clip-rule="evenodd" d="M26.2668 75.6319V82.6399C26.2668 83.4355 26.47 84.1986 26.8316 84.7612C27.1933 85.3238 27.6839 85.6399 28.1953 85.6399C28.7068 85.6399 29.1974 85.3238 29.5591 84.7612C29.9207 84.1986 30.1239 83.4355 30.1239 82.6399V60.4319C30.8862 60.4825 31.6063 60.9893 32.1339 61.8466C32.6616 62.7038 32.9558 63.8451 32.9551 65.0319V68.6319C32.9551 69.4275 33.1582 70.1906 33.5199 70.7532C33.8816 71.3158 34.3721 71.6319 34.8836 71.6319C35.3951 71.6319 35.8857 71.3158 36.2473 70.7532C36.609 70.1906 36.8122 69.4275 36.8122 68.6319V65.0319C36.8122 63.6399 36.6359 62.2615 36.2935 60.9754C35.951 59.6894 35.4491 58.5209 34.8163 57.5366C34.1836 56.5523 33.4324 55.7715 32.6056 55.2388C31.7789 54.7061 30.8928 54.4319 29.9979 54.4319H8.00192C7.10683 54.4314 6.22046 54.7051 5.39341 55.2376C4.56637 55.7701 3.81486 56.5508 3.18183 57.5351C2.54879 58.5195 2.04662 59.6882 1.70401 60.9745C1.3614 62.2608 1.18506 63.6395 1.18506 65.0319V68.6319C1.18506 69.4275 1.38825 70.1906 1.74992 70.7532C2.1116 71.3158 2.60214 71.6319 3.11363 71.6319C3.62512 71.6319 4.11566 71.3158 4.47734 70.7532C4.83901 70.1906 5.0422 69.4275 5.0422 68.6319V65.0319C5.04148 63.8458 5.33533 62.7051 5.86239 61.8479C6.38945 60.9908 7.10899 60.4835 7.87077 60.4319V82.6399C7.87077 83.4355 8.07396 84.1986 8.43564 84.7612C8.79732 85.3238 9.28786 85.6399 9.79934 85.6399C10.3108 85.6399 10.8014 85.3238 11.163 84.7612C11.5247 84.1986 11.7279 83.4355 11.7279 82.6399V75.6319H26.2668Z" fill="#FFBA57"/>
<path d="M8.00221 53.9319C7.00162 53.9313 6.02229 54.2381 5.12275 54.8172C4.22528 55.395 3.42575 56.2315 2.76128 57.2647C2.09657 58.2983 1.57504 59.5161 1.22086 60.8458C0.86656 62.176 0.685059 63.5981 0.685059 65.0319V68.6319C0.685059 69.505 0.906673 70.3661 1.32933 71.0236C1.75121 71.6798 2.38055 72.1319 3.11363 72.1319C3.84671 72.1319 4.47605 71.6798 4.89793 71.0236C5.32059 70.3661 5.5422 69.505 5.5422 68.6319V65.0319V65.0316C5.54153 63.9213 5.81782 62.8749 6.28831 62.1098C6.61006 61.5866 6.98807 61.2461 7.37077 61.0706V82.6399C7.37077 83.513 7.59239 84.3741 8.01505 85.0316C8.43693 85.6878 9.06626 86.1399 9.79934 86.1399C10.5324 86.1399 11.1618 85.6878 11.5836 85.0316C12.0063 84.3741 12.2279 83.513 12.2279 82.6399V76.1319H25.7668V82.6399C25.7668 83.513 25.9884 84.3741 26.411 85.0316C26.8329 85.6878 27.4623 86.1399 28.1953 86.1399C28.9284 86.1399 29.5578 85.6878 29.9796 85.0316C30.4023 84.3741 30.6239 83.513 30.6239 82.6399V61.0696C31.0072 61.2446 31.3858 61.5849 31.7081 62.1087C32.1791 62.8738 32.4557 63.9207 32.4551 65.0316V65.0319V68.6319C32.4551 69.505 32.6767 70.3661 33.0993 71.0236C33.5212 71.6798 34.1505 72.1319 34.8836 72.1319C35.6167 72.1319 36.246 71.6798 36.6679 71.0236C37.0906 70.3661 37.3122 69.505 37.3122 68.6319V65.0319C37.3122 63.5984 37.1308 62.1767 36.7767 60.8468C36.4226 59.5173 35.9014 58.2997 35.2369 57.2662C34.5728 56.233 33.7736 55.3965 32.8764 54.8185C31.9773 54.2391 30.9983 53.9319 29.9979 53.9319H8.00221ZM8.00221 53.9319L8.00192 54.4319V53.9319H8.00221ZM30.5 2V1.35961L29.8787 1.51493C27.9426 1.99895 26.5013 1.99764 25.2998 1.87748C24.8205 1.82956 24.3823 1.76323 23.9532 1.6983C23.8363 1.68061 23.7201 1.66303 23.604 1.64595C23.0695 1.56734 22.5389 1.5 22 1.5C16.2009 1.5 11.5 6.20086 11.5 12V12.0002C11.5007 14.2062 11.6135 15.9807 11.845 17.3116V18V18.5H12.345H13.5H13.9915L13.9999 18.0086C14.0433 15.4808 14.6676 14.1465 15.7033 13.1392C16.2383 12.619 16.9005 12.1692 17.7032 11.6904C18.0868 11.4615 18.4963 11.2296 18.9358 10.9807L18.9945 10.9475C19.0105 10.9384 19.0266 10.9293 19.0427 10.9202C17.9659 11.9477 17.3716 12.9371 17.0319 14.0344C16.6981 15.1124 16.6175 16.2808 16.5256 17.6145C16.5176 17.7301 16.5095 17.8468 16.5012 17.9649L16.4636 18.5H17H18C21.4249 18.5 24.5658 17.3676 26.8484 14.9537C29.1297 12.5411 30.5 8.90547 30.5 4V2ZM7.37077 60.5326C7.53425 60.4773 7.70147 60.4433 7.87077 60.4319V60.9334L7.37077 60.5326ZM35.1856 38.3916C36.0539 35.4451 36.5 32.2904 36.5 29.1067C36.5 28.5781 36.2835 28.0595 35.9554 27.5765C35.6252 27.0904 35.1587 26.6057 34.5998 26.1341C33.4815 25.1906 31.9387 24.254 30.2052 23.4256C26.7453 21.7721 22.4196 20.5 19 20.5C15.5804 20.5 11.2547 21.7721 7.79482 23.4256C6.06135 24.254 4.51848 25.1906 3.40022 26.1341C2.84131 26.6057 2.3748 27.0904 2.04457 27.5765C1.71647 28.0595 1.5 28.5781 1.5 29.1067C1.5 32.2904 1.94607 35.4451 2.81444 38.3916C3.68273 41.3378 4.95772 44.0231 6.57178 46.2917C8.18581 48.5602 10.1107 50.3721 12.2428 51.6133C14.3763 52.8554 16.673 53.5 19 53.5C21.327 53.5 23.6237 52.8554 25.7572 51.6133C27.8893 50.3721 29.8142 48.5602 31.4282 46.2917C33.0423 44.0231 34.3173 41.3378 35.1856 38.3916Z" stroke="#FFBA57"/>
</svg>
