<svg width="36" height="84" viewBox="0 0 36 84" fill="none" xmlns="http://www.w3.org/2000/svg">
<path fill-rule="evenodd" clip-rule="evenodd" d="M25.2668 73.6321V80.6401C25.2668 81.4358 25.47 82.1988 25.8316 82.7615C26.1933 83.3241 26.6839 83.6401 27.1953 83.6401C27.7068 83.6401 28.1974 83.3241 28.5591 82.7615C28.9207 82.1988 29.1239 81.4358 29.1239 80.6401V58.4321C29.8862 58.4827 30.6063 58.9896 31.1339 59.8468C31.6616 60.7041 31.9558 61.8453 31.9551 63.0321V66.6321C31.9551 67.4278 32.1582 68.1908 32.5199 68.7534C32.8816 69.3161 33.3721 69.6321 33.8836 69.6321C34.3951 69.6321 34.8857 69.3161 35.2473 68.7534C35.609 68.1908 35.8122 67.4278 35.8122 66.6321V63.0321C35.8122 61.6401 35.6359 60.2617 35.2935 58.9757C34.951 57.6896 34.4491 56.5211 33.8163 55.5368C33.1836 54.5525 32.4324 53.7717 31.6056 53.239C30.7789 52.7063 29.8928 52.4321 28.9979 52.4321H7.00192C6.10683 52.4316 5.22046 52.7054 4.39341 53.2379C3.56637 53.7703 2.81486 54.551 2.18183 55.5354C1.54879 56.5197 1.04662 57.6884 0.704011 58.9748C0.3614 60.2611 0.185059 61.6398 0.185059 63.0321V66.6321C0.185059 67.4278 0.388247 68.1908 0.749924 68.7534C1.1116 69.3161 1.60214 69.6321 2.11363 69.6321C2.62512 69.6321 3.11566 69.3161 3.47734 68.7534C3.83901 68.1908 4.0422 67.4278 4.0422 66.6321V63.0321C4.04148 61.846 4.33533 60.7053 4.86239 59.8482C5.38945 58.991 6.10899 58.4837 6.87077 58.4321V80.6401C6.87077 81.4358 7.07396 82.1988 7.43564 82.7615C7.79732 83.3241 8.28786 83.6401 8.79934 83.6401C9.31083 83.6401 9.80137 83.3241 10.163 82.7615C10.5247 82.1988 10.7279 81.4358 10.7279 80.6401V73.6321H25.2668Z" fill="#C4C4C4"/>
<path d="M30 0V2C30 11.627 24.627 16 18 16H17C17.212 12.988 17.248 11.165 19.696 8.999C20.9 7.934 20.798 7.319 20.205 7.672C16.121 10.102 13.59 10.756 13.5 16H12.345V15.268C12.1157 13.974 12.0007 12.218 12 10C12 4.477 16.477 0 22 0C24 0 26 1 30 0Z" fill="#C4C4C4"/>
<path d="M2 27.6333C2 23.2151 5.58172 19.6333 10 19.6333H26C30.4183 19.6333 34 23.2151 34 27.6333V41.5C34 45.9183 30.4183 49.5 26 49.5H10C5.58172 49.5 2 45.9183 2 41.5V27.6333Z" fill="#C4C4C4"/>
<path d="M6.99977 36.4075C6.99977 37.0952 7.31584 37.7546 7.87845 38.2408C8.44106 38.7271 9.20412 39.0002 9.99977 39.0002C10.7954 39.0002 11.5585 38.7271 12.1211 38.2408C12.6837 37.7546 12.9998 37.0952 12.9998 36.4075C12.9998 35.7199 11.2772 35.0003 10 35.0002C8.72265 35.0001 6.99977 35.7199 6.99977 36.4075Z" fill="#FFF7EC"/>
<path d="M16.8787 36.4826C16.8787 37.1702 17.1947 37.8297 17.7574 38.3159C18.32 38.8021 19.083 39.0753 19.8787 39.0753C20.6743 39.0753 21.4374 38.8021 22 38.3159C22.5626 37.8297 22.8787 37.1702 22.8787 36.4826C22.8787 35.795 21.1561 35.0754 19.8789 35.0753C18.6016 35.0752 16.8787 35.795 16.8787 36.4826Z" fill="#FFF7EC"/>
<path d="M23 46.5C23 47.3284 19.866 47 16 47C12.134 47 9 47.3284 9 46.5C9 45.6716 12.134 46.0002 16 46.0002C19.866 46.0002 23 45.6716 23 46.5Z" fill="#FFF7EC"/>
</svg>
