<svg width="36" height="84" viewBox="0 0 36 84" fill="none" xmlns="http://www.w3.org/2000/svg">
<path d="M30 0V2C30 11.627 24.627 16 18 16H17C17.212 12.988 17.248 11.165 19.696 8.999C20.9 7.934 20.798 7.319 20.205 7.672C16.121 10.102 13.59 10.756 13.5 16H12.345V15.268C12.1157 13.974 12.0007 12.218 12 10C12 4.477 16.477 0 22 0C24 0 26 1 30 0Z" fill="#8C9EFF"/>
<path d="M17.6233 18.0001C30.9908 18.0001 34.2467 31.7144 34.2467 38.5715C34.2467 44.8801 26.7994 50.0001 17.6233 50.0001C8.44722 50.0001 0.999951 44.8801 0.999951 38.5715C0.999951 31.7144 4.25583 18.0001 17.6233 18.0001Z" fill="#8C9EFF"/>
<path d="M9.79802 43.9646C9.65743 43.9301 9.52615 43.8713 9.41194 43.7917C9.29773 43.712 9.2029 43.6131 9.13307 43.5008C9.06324 43.3885 9.01981 43.2651 9.00536 43.1378C8.99091 43.0106 9.00573 42.8821 9.04894 42.7599C9.09215 42.6378 9.16287 42.5244 9.25693 42.4266C9.93256 41.6814 10.7888 41.0772 11.7636 40.6577L11.8113 40.6373C12.8058 40.2171 13.8958 39.9993 15 40C16.1042 39.9993 17.1942 40.2171 18.1887 40.6373C19.1832 41.0575 20.0564 41.6692 20.7431 42.4266C20.8371 42.5244 20.9079 42.6378 20.9511 42.7599C20.9943 42.8821 21.0091 43.0106 20.9946 43.1378C20.9802 43.2651 20.9368 43.3885 20.8669 43.5008C20.7971 43.6131 20.7023 43.712 20.5881 43.7917C20.4739 43.8713 20.3426 43.9301 20.202 43.9646C20.0614 43.9991 19.9143 44.0085 19.7695 43.9923C19.6247 43.9762 19.485 43.9347 19.3588 43.8705C19.2326 43.8062 19.1223 43.7205 19.0346 43.6183C18.5523 43.0862 17.9388 42.6566 17.2401 42.3616C16.5414 42.0667 15.7756 41.914 15 41.915C14.2243 41.9141 13.4584 42.067 12.7597 42.3622C12.061 42.6574 11.4476 43.0872 10.9654 43.6195L11.1501 42.9341L9.79802 43.9646Z" fill="#FFF7EC"/>
<path d="M11.2857 35.5C11.2857 36.8807 10.3263 38 9.14286 38C7.95939 38 7 36.8807 7 35.5C7 34.1193 7.95939 33 9.14286 33C10.3263 33 11.2857 34.1193 11.2857 35.5Z" fill="#FFF7EC"/>
<path d="M22.2857 35.5C22.2857 36.8807 21.3263 38 20.1429 38C18.9594 38 18 36.8807 18 35.5C18 34.1193 18.9594 33 20.1429 33C21.3263 33 22.2857 34.1193 22.2857 35.5Z" fill="#FFF7EC"/>
<path d="M22.0936 38L21.9569 38.1531C21.9569 38.1531 21.7236 38.4174 21.4885 38.76C21.2533 39.1027 21 39.5128 21 39.9064C21 40.1965 21.1152 40.4746 21.3203 40.6797C21.5254 40.8848 21.8035 41 22.0936 41C22.3836 41 22.6617 40.8848 22.8668 40.6797C23.0719 40.4746 23.1871 40.1965 23.1871 39.9064C23.1871 39.5128 22.9338 39.1027 22.6987 38.76C22.4635 38.4174 22.2303 38.1531 22.2303 38.1531L22.0936 38Z" fill="#FFF7EC"/>
<path d="M7.09356 38L6.95687 38.1531C6.95687 38.1531 6.72357 38.4174 6.48846 38.76C6.25334 39.1027 6 39.5128 6 39.9064C6 40.1965 6.11521 40.4746 6.3203 40.6797C6.52538 40.8848 6.80353 41 7.09356 41C7.38359 41 7.66174 40.8848 7.86682 40.6797C8.07191 40.4746 8.18712 40.1965 8.18712 39.9064C8.18712 39.5128 7.93378 39.1027 7.69866 38.76C7.46355 38.4174 7.23026 38.1531 7.23026 38.1531L7.09356 38Z" fill="#FFF7EC"/>
<path fill-rule="evenodd" clip-rule="evenodd" d="M25.2668 73.6321V80.6401C25.2668 81.4358 25.47 82.1988 25.8316 82.7615C26.1933 83.3241 26.6839 83.6401 27.1953 83.6401C27.7068 83.6401 28.1974 83.3241 28.5591 82.7615C28.9207 82.1988 29.1239 81.4358 29.1239 80.6401V58.4321C29.8862 58.4827 30.6063 58.9896 31.1339 59.8468C31.6616 60.7041 31.9558 61.8453 31.9551 63.0321V66.6321C31.9551 67.4278 32.1582 68.1908 32.5199 68.7534C32.8816 69.3161 33.3721 69.6321 33.8836 69.6321C34.3951 69.6321 34.8857 69.3161 35.2473 68.7534C35.609 68.1908 35.8122 67.4278 35.8122 66.6321V63.0321C35.8122 61.6401 35.6359 60.2617 35.2935 58.9757C34.951 57.6896 34.4491 56.5211 33.8163 55.5368C33.1836 54.5525 32.4324 53.7717 31.6056 53.239C30.7789 52.7063 29.8928 52.4321 28.9979 52.4321H7.00192C6.10683 52.4316 5.22046 52.7054 4.39341 53.2379C3.56637 53.7703 2.81486 54.551 2.18183 55.5354C1.54879 56.5197 1.04662 57.6884 0.704011 58.9748C0.3614 60.2611 0.185059 61.6398 0.185059 63.0321V66.6321C0.185059 67.4278 0.388247 68.1908 0.749924 68.7534C1.1116 69.3161 1.60214 69.6321 2.11363 69.6321C2.62512 69.6321 3.11566 69.3161 3.47734 68.7534C3.83901 68.1908 4.0422 67.4278 4.0422 66.6321V63.0321C4.04148 61.846 4.33533 60.7053 4.86239 59.8482C5.38945 58.991 6.10899 58.4837 6.87077 58.4321V80.6401C6.87077 81.4358 7.07396 82.1988 7.43564 82.7615C7.79732 83.3241 8.28786 83.6401 8.79934 83.6401C9.31083 83.6401 9.80137 83.3241 10.163 82.7615C10.5247 82.1988 10.7279 81.4358 10.7279 80.6401V73.6321H25.2668Z" fill="#8C9EFF"/>
</svg>
